%FSLAX45Y45*%
G04 Gerber Fmt 4.5, Leading zero omitted, Abs format (unit mm)*
G04 Created by KiCad (PCBNEW (5.1.6)-1) date 2021-04-19 00:02:52*
%MOMM*%
%LPD*%
G01*
G04 APERTURE LIST*
%TA.AperFunction,Profile*%
%ADD10C,0.100000*%
%TD*%
%ADD11C,0.200000*%
%ADD12C,0.300000*%
G04 APERTURE END LIST*
D10*
X7400000Y-4500000D02*
X7400000Y-10400000D01*
X2300000Y-4500000D02*
X7400000Y-4500000D01*
X2300000Y-10400000D02*
X2300000Y-4500000D01*
X7400000Y-10400000D02*
X2300000Y-10400000D01*
D11*
D12*
X2581428Y-10870714D02*
X2581428Y-10570714D01*
X2652857Y-10570714D01*
X2695714Y-10585000D01*
X2724286Y-10613572D01*
X2738571Y-10642143D01*
X2752857Y-10699286D01*
X2752857Y-10742143D01*
X2738571Y-10799286D01*
X2724286Y-10827857D01*
X2695714Y-10856429D01*
X2652857Y-10870714D01*
X2581428Y-10870714D01*
X2881428Y-10870714D02*
X2881428Y-10670714D01*
X2881428Y-10727857D02*
X2895714Y-10699286D01*
X2910000Y-10685000D01*
X2938571Y-10670714D01*
X2967143Y-10670714D01*
X3067143Y-10870714D02*
X3067143Y-10670714D01*
X3067143Y-10570714D02*
X3052857Y-10585000D01*
X3067143Y-10599286D01*
X3081428Y-10585000D01*
X3067143Y-10570714D01*
X3067143Y-10599286D01*
X3252857Y-10870714D02*
X3224286Y-10856429D01*
X3210000Y-10827857D01*
X3210000Y-10570714D01*
X3410000Y-10870714D02*
X3381428Y-10856429D01*
X3367143Y-10827857D01*
X3367143Y-10570714D01*
X3752857Y-10870714D02*
X3752857Y-10570714D01*
X3852857Y-10785000D01*
X3952857Y-10570714D01*
X3952857Y-10870714D01*
X4224286Y-10870714D02*
X4224286Y-10713572D01*
X4210000Y-10685000D01*
X4181428Y-10670714D01*
X4124286Y-10670714D01*
X4095714Y-10685000D01*
X4224286Y-10856429D02*
X4195714Y-10870714D01*
X4124286Y-10870714D01*
X4095714Y-10856429D01*
X4081428Y-10827857D01*
X4081428Y-10799286D01*
X4095714Y-10770714D01*
X4124286Y-10756429D01*
X4195714Y-10756429D01*
X4224286Y-10742143D01*
X4367143Y-10670714D02*
X4367143Y-10970714D01*
X4367143Y-10685000D02*
X4395714Y-10670714D01*
X4452857Y-10670714D01*
X4481428Y-10685000D01*
X4495714Y-10699286D01*
X4510000Y-10727857D01*
X4510000Y-10813572D01*
X4495714Y-10842143D01*
X4481428Y-10856429D01*
X4452857Y-10870714D01*
X4395714Y-10870714D01*
X4367143Y-10856429D01*
X4638571Y-10842143D02*
X4652857Y-10856429D01*
X4638571Y-10870714D01*
X4624286Y-10856429D01*
X4638571Y-10842143D01*
X4638571Y-10870714D01*
X4638571Y-10685000D02*
X4652857Y-10699286D01*
X4638571Y-10713572D01*
X4624286Y-10699286D01*
X4638571Y-10685000D01*
X4638571Y-10713572D01*
M02*
