%TF.GenerationSoftware,KiCad,Pcbnew,(5.1.6)-1*%
%TF.CreationDate,2021-04-19T00:14:33-04:00*%
%TF.ProjectId,fafnir-v2,6661666e-6972-42d7-9632-2e6b69636164,rev?*%
%TF.SameCoordinates,Original*%
%TF.FileFunction,Copper,L2,Bot*%
%TF.FilePolarity,Positive*%
%FSLAX46Y46*%
G04 Gerber Fmt 4.6, Leading zero omitted, Abs format (unit mm)*
G04 Created by KiCad (PCBNEW (5.1.6)-1) date 2021-04-19 00:14:33*
%MOMM*%
%LPD*%
G01*
G04 APERTURE LIST*
%TA.AperFunction,ComponentPad*%
%ADD10C,2.540000*%
%TD*%
%TA.AperFunction,ComponentPad*%
%ADD11R,2.540000X2.540000*%
%TD*%
%TA.AperFunction,ComponentPad*%
%ADD12C,2.000000*%
%TD*%
%TA.AperFunction,ComponentPad*%
%ADD13C,1.800000*%
%TD*%
%TA.AperFunction,ComponentPad*%
%ADD14R,1.800000X1.800000*%
%TD*%
%TA.AperFunction,ComponentPad*%
%ADD15C,2.750000*%
%TD*%
%TA.AperFunction,ComponentPad*%
%ADD16R,1.130000X1.130000*%
%TD*%
%TA.AperFunction,ComponentPad*%
%ADD17C,1.130000*%
%TD*%
%TA.AperFunction,ComponentPad*%
%ADD18R,2.200000X2.200000*%
%TD*%
%TA.AperFunction,ComponentPad*%
%ADD19O,2.200000X2.200000*%
%TD*%
%TA.AperFunction,ComponentPad*%
%ADD20R,1.930400X1.930400*%
%TD*%
%TA.AperFunction,ComponentPad*%
%ADD21C,1.930400*%
%TD*%
%TA.AperFunction,ViaPad*%
%ADD22C,0.800000*%
%TD*%
%TA.AperFunction,Conductor*%
%ADD23C,0.550000*%
%TD*%
G04 APERTURE END LIST*
D10*
X59620000Y-52100000D03*
X64700000Y-52100000D03*
D11*
X69780000Y-52100000D03*
D10*
X26620000Y-52100000D03*
X31700000Y-52100000D03*
D11*
X36780000Y-52100000D03*
X69780000Y-77500000D03*
D10*
X64700000Y-77500000D03*
X59620000Y-77500000D03*
X26620000Y-77500000D03*
X31700000Y-77500000D03*
D11*
X36780000Y-77500000D03*
D12*
X44000000Y-58000000D03*
D13*
X49540000Y-50250000D03*
D14*
X47000000Y-50250000D03*
%TA.AperFunction,ComponentPad*%
G36*
G01*
X63875000Y-103124750D02*
X63875000Y-100875250D01*
G75*
G02*
X64125250Y-100625000I250250J0D01*
G01*
X66374750Y-100625000D01*
G75*
G02*
X66625000Y-100875250I0J-250250D01*
G01*
X66625000Y-103124750D01*
G75*
G02*
X66374750Y-103375000I-250250J0D01*
G01*
X64125250Y-103375000D01*
G75*
G02*
X63875000Y-103124750I0J250250D01*
G01*
G37*
%TD.AperFunction*%
%TA.AperFunction,ComponentPad*%
G36*
G01*
X23875000Y-103124750D02*
X23875000Y-100875250D01*
G75*
G02*
X24125250Y-100625000I250250J0D01*
G01*
X26374750Y-100625000D01*
G75*
G02*
X26625000Y-100875250I0J-250250D01*
G01*
X26625000Y-103124750D01*
G75*
G02*
X26374750Y-103375000I-250250J0D01*
G01*
X24125250Y-103375000D01*
G75*
G02*
X23875000Y-103124750I0J250250D01*
G01*
G37*
%TD.AperFunction*%
D15*
X71750000Y-102000000D03*
D12*
X54500000Y-58000000D03*
%TA.AperFunction,ComponentPad*%
G36*
G01*
X50250000Y-57182000D02*
X50250000Y-58818000D01*
G75*
G02*
X50068000Y-59000000I-182000J0D01*
G01*
X48432000Y-59000000D01*
G75*
G02*
X48250000Y-58818000I0J182000D01*
G01*
X48250000Y-57182000D01*
G75*
G02*
X48432000Y-57000000I182000J0D01*
G01*
X50068000Y-57000000D01*
G75*
G02*
X50250000Y-57182000I0J-182000D01*
G01*
G37*
%TD.AperFunction*%
X51300000Y-95040000D03*
X51300000Y-89960000D03*
X52210000Y-101750000D03*
X57290000Y-101750000D03*
X46250000Y-89860000D03*
X46250000Y-94940000D03*
X38200000Y-100600000D03*
X33120000Y-100600000D03*
X55000000Y-89960000D03*
X55000000Y-95040000D03*
X59500000Y-95250000D03*
X59500000Y-90170000D03*
X62120000Y-81500000D03*
X67200000Y-81500000D03*
X24460000Y-87000000D03*
X29540000Y-87000000D03*
X41710000Y-86000000D03*
X46790000Y-86000000D03*
D16*
X43660000Y-63400000D03*
D17*
X43660000Y-65940000D03*
X43660000Y-68480000D03*
X43660000Y-71020000D03*
X43660000Y-73560000D03*
X43660000Y-76100000D03*
X43660000Y-78640000D03*
X43660000Y-81180000D03*
X51600000Y-81180000D03*
X51600000Y-78640000D03*
X51600000Y-76100000D03*
X51600000Y-73560000D03*
X51600000Y-71020000D03*
X51600000Y-68480000D03*
X51600000Y-65940000D03*
X51600000Y-63400000D03*
D18*
X35060000Y-82500000D03*
D19*
X24900000Y-82500000D03*
D20*
X69980000Y-95500000D03*
D21*
X72520000Y-95500000D03*
D12*
X70900000Y-82000000D03*
X70900000Y-87080000D03*
X51460000Y-98500000D03*
X56540000Y-98500000D03*
X47040000Y-100500000D03*
X41960000Y-100500000D03*
X34000000Y-90460000D03*
X34000000Y-95540000D03*
D20*
X64730000Y-91000000D03*
D21*
X67270000Y-91000000D03*
D12*
X57460000Y-86500000D03*
X62540000Y-86500000D03*
X54750000Y-81750000D03*
X57750000Y-81750000D03*
X26460000Y-97500000D03*
X31540000Y-97500000D03*
X38460000Y-96500000D03*
X43540000Y-96500000D03*
D20*
X26480000Y-92000000D03*
D21*
X29020000Y-92000000D03*
D12*
X42500000Y-92000000D03*
X39500000Y-92000000D03*
D22*
X50000000Y-83750000D03*
X57250000Y-90250000D03*
X40750000Y-77000000D03*
X55000000Y-76000000D03*
X64750000Y-84750000D03*
X53250000Y-85250000D03*
D23*
X31000000Y-91250000D02*
X31000000Y-94250000D01*
X29000000Y-102500000D02*
X45040000Y-102500000D01*
X31000000Y-94250000D02*
X29000000Y-96250000D01*
X29500000Y-89750000D02*
X31000000Y-91250000D01*
X29000000Y-96250000D02*
X29000000Y-102500000D01*
X26620000Y-80620000D02*
X27750000Y-81750000D01*
X27750000Y-81750000D02*
X27750000Y-89750000D01*
X45040000Y-102500000D02*
X47040000Y-100500000D01*
X27750000Y-89750000D02*
X29500000Y-89750000D01*
X47040000Y-100500000D02*
X49000000Y-100500000D01*
X50250000Y-101750000D02*
X52210000Y-101750000D01*
X49000000Y-100500000D02*
X50250000Y-101750000D01*
X26620000Y-80620000D02*
X26620000Y-77500000D01*
X31700000Y-88160000D02*
X34000000Y-90460000D01*
X31700000Y-88160000D02*
X31700000Y-77500000D01*
X34000000Y-95540000D02*
X34000000Y-93750000D01*
X34000000Y-93750000D02*
X36000000Y-91750000D01*
X36000000Y-91750000D02*
X36000000Y-85500000D01*
X36000000Y-85500000D02*
X37750000Y-83750000D01*
X37750000Y-78470000D02*
X36780000Y-77500000D01*
X37750000Y-83750000D02*
X37750000Y-78470000D01*
X42500000Y-92000000D02*
X43750000Y-90750000D01*
X43750000Y-89040000D02*
X46790000Y-86000000D01*
X43750000Y-90750000D02*
X43750000Y-89040000D01*
X63230000Y-92500000D02*
X64730000Y-91000000D01*
X49250000Y-92500000D02*
X63230000Y-92500000D01*
X46790000Y-86000000D02*
X49250000Y-88460000D01*
X49250000Y-88460000D02*
X49250000Y-92500000D01*
X50000000Y-83750000D02*
X50000000Y-80500000D01*
X50000000Y-80500000D02*
X45250000Y-75750000D01*
X45250000Y-67530000D02*
X43660000Y-65940000D01*
X45250000Y-75750000D02*
X45250000Y-67530000D01*
X41750000Y-85960000D02*
X41710000Y-86000000D01*
X41710000Y-89790000D02*
X39500000Y-92000000D01*
X41710000Y-86000000D02*
X41710000Y-89790000D01*
X41710000Y-86000000D02*
X41710000Y-85210000D01*
X40750000Y-84250000D02*
X40750000Y-77000000D01*
X41710000Y-85210000D02*
X40750000Y-84250000D01*
X43660000Y-81180000D02*
X42000000Y-79520000D01*
X42000000Y-79520000D02*
X42000000Y-69500000D01*
X36780000Y-64280000D02*
X36780000Y-52100000D01*
X42000000Y-69500000D02*
X36780000Y-64280000D01*
X44680000Y-81180000D02*
X43660000Y-81180000D01*
X55000000Y-89960000D02*
X50540000Y-85500000D01*
X49000000Y-85500000D02*
X44680000Y-81180000D01*
X50540000Y-85500000D02*
X49000000Y-85500000D01*
X57460000Y-82040000D02*
X57500000Y-82000000D01*
X57460000Y-86500000D02*
X57460000Y-82040000D01*
X55000000Y-76000000D02*
X55000000Y-72250000D01*
X51600000Y-68850000D02*
X51600000Y-68480000D01*
X55000000Y-72250000D02*
X51600000Y-68850000D01*
X38750000Y-49500000D02*
X29220000Y-49500000D01*
X41000000Y-51750000D02*
X38750000Y-49500000D01*
X72750000Y-91000000D02*
X72750000Y-77074998D01*
X67270000Y-91000000D02*
X72750000Y-91000000D01*
X72750000Y-77074998D02*
X56925002Y-61250000D01*
X56925002Y-61250000D02*
X41000000Y-61250000D01*
X29220000Y-49500000D02*
X26620000Y-52100000D01*
X41000000Y-61250000D02*
X41000000Y-51750000D01*
X36635001Y-97084999D02*
X36635001Y-93614999D01*
X33120000Y-100600000D02*
X36635001Y-97084999D01*
X36635001Y-93614999D02*
X37500000Y-92750000D01*
X37500000Y-85750000D02*
X39250000Y-84000000D01*
X37500000Y-92750000D02*
X37500000Y-85750000D01*
X39250000Y-84000000D02*
X39250000Y-75000000D01*
X31700000Y-67450000D02*
X31700000Y-52100000D01*
X39250000Y-75000000D02*
X31700000Y-67450000D01*
X57250000Y-90250000D02*
X57250000Y-89500000D01*
X57250000Y-89500000D02*
X59750000Y-87000000D01*
X59750000Y-77630000D02*
X59620000Y-77500000D01*
X59750000Y-87000000D02*
X59750000Y-77630000D01*
X69780000Y-77500000D02*
X70250000Y-77500000D01*
X70900000Y-78150000D02*
X70900000Y-82000000D01*
X70250000Y-77500000D02*
X70900000Y-78150000D01*
X64750000Y-84750000D02*
X64750000Y-81000000D01*
X64750000Y-81000000D02*
X62250000Y-78500000D01*
X62250000Y-78500000D02*
X62250000Y-76750000D01*
X62250000Y-76750000D02*
X60750000Y-75250000D01*
X60750000Y-75250000D02*
X58500000Y-75250000D01*
X55110000Y-78640000D02*
X51600000Y-78640000D01*
X58500000Y-75250000D02*
X55110000Y-78640000D01*
X23750000Y-91000000D02*
X26500000Y-88250000D01*
X26500000Y-88250000D02*
X26500000Y-84100000D01*
X25250000Y-102000000D02*
X23750000Y-100500000D01*
X26500000Y-84100000D02*
X24900000Y-82500000D01*
X23750000Y-100500000D02*
X23750000Y-91000000D01*
X51600000Y-83600000D02*
X51600000Y-81180000D01*
X53250000Y-85250000D02*
X51600000Y-83600000D01*
X65250000Y-101000000D02*
X59500000Y-95250000D01*
X65250000Y-102000000D02*
X65250000Y-101000000D01*
X55210000Y-95250000D02*
X55000000Y-95040000D01*
X59500000Y-95250000D02*
X55210000Y-95250000D01*
X54500000Y-58000000D02*
X50500000Y-54000000D01*
X50500000Y-51210000D02*
X49540000Y-50250000D01*
X50500000Y-54000000D02*
X50500000Y-51210000D01*
X49250000Y-58000000D02*
X49250000Y-54250000D01*
X47000000Y-52000000D02*
X47000000Y-50250000D01*
X49250000Y-54250000D02*
X47000000Y-52000000D01*
M02*
