M48
; DRILL file {KiCad (5.1.6)-1} date 04/19/21 00:14:53
; FORMAT={-:-/ absolute / metric / decimal}
; #@! TF.CreationDate,2021-04-19T00:14:53-04:00
; #@! TF.GenerationSoftware,Kicad,Pcbnew,(5.1.6)-1
; #@! TF.FileFunction,Plated,1,2,PTH
FMAT,2
METRIC
T1C0.400
T2C0.730
T3C0.900
T4C1.000
T5C1.100
T6C1.400
T7C1.750
%
G90
G05
T1
X40.75Y-77.0
X50.0Y-83.75
X53.25Y-85.25
X55.0Y-76.0
X57.25Y-90.25
X64.75Y-84.75
T2
X43.66Y-63.4
X43.66Y-65.94
X43.66Y-68.48
X43.66Y-71.02
X43.66Y-73.56
X43.66Y-76.1
X43.66Y-78.64
X43.66Y-81.18
X51.6Y-63.4
X51.6Y-65.94
X51.6Y-68.48
X51.6Y-71.02
X51.6Y-73.56
X51.6Y-76.1
X51.6Y-78.64
X51.6Y-81.18
T3
X47.0Y-50.25
X49.54Y-50.25
T4
X55.0Y-89.96
X55.0Y-95.04
X59.5Y-90.17
X59.5Y-95.25
X44.0Y-58.0
X34.0Y-90.46
X34.0Y-95.54
X41.96Y-100.5
X47.04Y-100.5
X26.48Y-92.0
X29.02Y-92.0
X51.46Y-98.5
X56.54Y-98.5
X33.12Y-100.6
X38.2Y-100.6
X64.73Y-91.0
X67.27Y-91.0
X69.98Y-95.5
X72.52Y-95.5
X52.21Y-101.75
X57.29Y-101.75
X51.3Y-89.96
X51.3Y-95.04
X38.46Y-96.5
X43.54Y-96.5
X70.9Y-82.0
X70.9Y-87.08
X41.71Y-86.0
X46.79Y-86.0
X46.25Y-89.86
X46.25Y-94.94
X57.46Y-86.5
X62.54Y-86.5
X39.5Y-92.0
X42.5Y-92.0
X49.25Y-58.0
X26.46Y-97.5
X31.54Y-97.5
X54.5Y-58.0
X62.12Y-81.5
X67.2Y-81.5
X24.46Y-87.0
X29.54Y-87.0
X54.75Y-81.75
X57.75Y-81.75
T5
X24.9Y-82.5
X35.06Y-82.5
T6
X26.62Y-52.1
X31.7Y-52.1
X36.78Y-52.1
X59.62Y-77.5
X64.7Y-77.5
X69.78Y-77.5
X26.62Y-77.5
X31.7Y-77.5
X36.78Y-77.5
X59.62Y-52.1
X64.7Y-52.1
X69.78Y-52.1
T7
X65.25Y-102.0
X25.25Y-102.0
X71.75Y-102.0
T0
M30
