%FSLAX45Y45*%
G04 Gerber Fmt 4.5, Leading zero omitted, Abs format (unit mm)*
G04 Created by KiCad (PCBNEW (5.1.6)-1) date 2021-04-19 00:02:52*
%MOMM*%
%LPD*%
G01*
G04 APERTURE LIST*
%TA.AperFunction,Profile*%
%ADD10C,0.100000*%
%TD*%
%ADD11C,0.200000*%
%ADD12C,0.300000*%
G04 APERTURE END LIST*
D10*
X7400000Y-4500000D02*
X7400000Y-10400000D01*
X2300000Y-4500000D02*
X7400000Y-4500000D01*
X2300000Y-10400000D02*
X2300000Y-4500000D01*
X7400000Y-10400000D02*
X2300000Y-10400000D01*
D11*
X4055000Y-7680000D02*
X4095000Y-7720000D01*
X4095000Y-7680000D02*
X4055000Y-7720000D01*
X4980000Y-8355000D02*
X5020000Y-8395000D01*
X5020000Y-8355000D02*
X4980000Y-8395000D01*
X5305000Y-8505000D02*
X5345000Y-8545000D01*
X5345000Y-8505000D02*
X5305000Y-8545000D01*
X5480000Y-7580000D02*
X5520000Y-7620000D01*
X5520000Y-7580000D02*
X5480000Y-7620000D01*
X5705000Y-9005000D02*
X5745000Y-9045000D01*
X5745000Y-9005000D02*
X5705000Y-9045000D01*
X6455000Y-8455000D02*
X6495000Y-8495000D01*
X6495000Y-8455000D02*
X6455000Y-8495000D01*
X4402500Y-6340000D02*
G75*
G03*
X4402500Y-6340000I-36500J0D01*
G01*
X4402500Y-6594000D02*
G75*
G03*
X4402500Y-6594000I-36500J0D01*
G01*
X4402500Y-6848000D02*
G75*
G03*
X4402500Y-6848000I-36500J0D01*
G01*
X4402500Y-7102000D02*
G75*
G03*
X4402500Y-7102000I-36500J0D01*
G01*
X4402500Y-7356000D02*
G75*
G03*
X4402500Y-7356000I-36500J0D01*
G01*
X4402500Y-7610000D02*
G75*
G03*
X4402500Y-7610000I-36500J0D01*
G01*
X4402500Y-7864000D02*
G75*
G03*
X4402500Y-7864000I-36500J0D01*
G01*
X4402500Y-8118000D02*
G75*
G03*
X4402500Y-8118000I-36500J0D01*
G01*
X5196500Y-6340000D02*
G75*
G03*
X5196500Y-6340000I-36500J0D01*
G01*
X5196500Y-6594000D02*
G75*
G03*
X5196500Y-6594000I-36500J0D01*
G01*
X5196500Y-6848000D02*
G75*
G03*
X5196500Y-6848000I-36500J0D01*
G01*
X5196500Y-7102000D02*
G75*
G03*
X5196500Y-7102000I-36500J0D01*
G01*
X5196500Y-7356000D02*
G75*
G03*
X5196500Y-7356000I-36500J0D01*
G01*
X5196500Y-7610000D02*
G75*
G03*
X5196500Y-7610000I-36500J0D01*
G01*
X5196500Y-7864000D02*
G75*
G03*
X5196500Y-7864000I-36500J0D01*
G01*
X5196500Y-8118000D02*
G75*
G03*
X5196500Y-8118000I-36500J0D01*
G01*
X4700000Y-4980000D02*
X4700000Y-5070000D01*
X4655000Y-5025000D02*
X4745000Y-5025000D01*
X4954000Y-4980000D02*
X4954000Y-5070000D01*
X4909000Y-5025000D02*
X4999000Y-5025000D01*
X5535356Y-9031356D02*
X5535356Y-8960644D01*
X5464644Y-8960644D01*
X5464644Y-9031356D01*
X5535356Y-9031356D01*
X5535356Y-9539356D02*
X5535356Y-9468644D01*
X5464644Y-9468644D01*
X5464644Y-9539356D01*
X5535356Y-9539356D01*
X5985356Y-9052356D02*
X5985356Y-8981644D01*
X5914644Y-8981644D01*
X5914644Y-9052356D01*
X5985356Y-9052356D01*
X5985356Y-9560356D02*
X5985356Y-9489644D01*
X5914644Y-9489644D01*
X5914644Y-9560356D01*
X5985356Y-9560356D01*
X4435356Y-5835356D02*
X4435356Y-5764644D01*
X4364644Y-5764644D01*
X4364644Y-5835356D01*
X4435356Y-5835356D01*
X3435356Y-9081356D02*
X3435356Y-9010644D01*
X3364644Y-9010644D01*
X3364644Y-9081356D01*
X3435356Y-9081356D01*
X3435356Y-9589356D02*
X3435356Y-9518644D01*
X3364644Y-9518644D01*
X3364644Y-9589356D01*
X3435356Y-9589356D01*
X4231356Y-10085356D02*
X4231356Y-10014644D01*
X4160644Y-10014644D01*
X4160644Y-10085356D01*
X4231356Y-10085356D01*
X4739356Y-10085356D02*
X4739356Y-10014644D01*
X4668644Y-10014644D01*
X4668644Y-10085356D01*
X4739356Y-10085356D01*
X2683356Y-9235356D02*
X2683356Y-9164644D01*
X2612644Y-9164644D01*
X2612644Y-9235356D01*
X2683356Y-9235356D01*
X2937356Y-9235356D02*
X2937356Y-9164644D01*
X2866644Y-9164644D01*
X2866644Y-9235356D01*
X2937356Y-9235356D01*
X5181356Y-9885356D02*
X5181356Y-9814644D01*
X5110644Y-9814644D01*
X5110644Y-9885356D01*
X5181356Y-9885356D01*
X5689356Y-9885356D02*
X5689356Y-9814644D01*
X5618644Y-9814644D01*
X5618644Y-9885356D01*
X5689356Y-9885356D01*
X3347356Y-10095356D02*
X3347356Y-10024644D01*
X3276644Y-10024644D01*
X3276644Y-10095356D01*
X3347356Y-10095356D01*
X3855356Y-10095356D02*
X3855356Y-10024644D01*
X3784644Y-10024644D01*
X3784644Y-10095356D01*
X3855356Y-10095356D01*
X6508356Y-9135356D02*
X6508356Y-9064644D01*
X6437644Y-9064644D01*
X6437644Y-9135356D01*
X6508356Y-9135356D01*
X6762356Y-9135356D02*
X6762356Y-9064644D01*
X6691644Y-9064644D01*
X6691644Y-9135356D01*
X6762356Y-9135356D01*
X7033356Y-9585356D02*
X7033356Y-9514644D01*
X6962644Y-9514644D01*
X6962644Y-9585356D01*
X7033356Y-9585356D01*
X7287356Y-9585356D02*
X7287356Y-9514644D01*
X7216644Y-9514644D01*
X7216644Y-9585356D01*
X7287356Y-9585356D01*
X5256356Y-10210356D02*
X5256356Y-10139644D01*
X5185644Y-10139644D01*
X5185644Y-10210356D01*
X5256356Y-10210356D01*
X5764356Y-10210356D02*
X5764356Y-10139644D01*
X5693644Y-10139644D01*
X5693644Y-10210356D01*
X5764356Y-10210356D01*
X5165356Y-9031356D02*
X5165356Y-8960644D01*
X5094644Y-8960644D01*
X5094644Y-9031356D01*
X5165356Y-9031356D01*
X5165356Y-9539356D02*
X5165356Y-9468644D01*
X5094644Y-9468644D01*
X5094644Y-9539356D01*
X5165356Y-9539356D01*
X3881356Y-9685356D02*
X3881356Y-9614644D01*
X3810644Y-9614644D01*
X3810644Y-9685356D01*
X3881356Y-9685356D01*
X4389356Y-9685356D02*
X4389356Y-9614644D01*
X4318644Y-9614644D01*
X4318644Y-9685356D01*
X4389356Y-9685356D01*
X7125356Y-8235356D02*
X7125356Y-8164644D01*
X7054644Y-8164644D01*
X7054644Y-8235356D01*
X7125356Y-8235356D01*
X7125356Y-8743356D02*
X7125356Y-8672644D01*
X7054644Y-8672644D01*
X7054644Y-8743356D01*
X7125356Y-8743356D01*
X4206356Y-8635356D02*
X4206356Y-8564644D01*
X4135644Y-8564644D01*
X4135644Y-8635356D01*
X4206356Y-8635356D01*
X4714356Y-8635356D02*
X4714356Y-8564644D01*
X4643644Y-8564644D01*
X4643644Y-8635356D01*
X4714356Y-8635356D01*
X4660356Y-9021356D02*
X4660356Y-8950644D01*
X4589644Y-8950644D01*
X4589644Y-9021356D01*
X4660356Y-9021356D01*
X4660356Y-9529356D02*
X4660356Y-9458644D01*
X4589644Y-9458644D01*
X4589644Y-9529356D01*
X4660356Y-9529356D01*
X5781356Y-8685356D02*
X5781356Y-8614644D01*
X5710644Y-8614644D01*
X5710644Y-8685356D01*
X5781356Y-8685356D01*
X6289356Y-8685356D02*
X6289356Y-8614644D01*
X6218644Y-8614644D01*
X6218644Y-8685356D01*
X6289356Y-8685356D01*
X3985356Y-9235356D02*
X3985356Y-9164644D01*
X3914644Y-9164644D01*
X3914644Y-9235356D01*
X3985356Y-9235356D01*
X4285356Y-9235356D02*
X4285356Y-9164644D01*
X4214644Y-9164644D01*
X4214644Y-9235356D01*
X4285356Y-9235356D01*
X4960356Y-5835356D02*
X4960356Y-5764644D01*
X4889644Y-5764644D01*
X4889644Y-5835356D01*
X4960356Y-5835356D01*
X2681356Y-9785356D02*
X2681356Y-9714644D01*
X2610644Y-9714644D01*
X2610644Y-9785356D01*
X2681356Y-9785356D01*
X3189356Y-9785356D02*
X3189356Y-9714644D01*
X3118644Y-9714644D01*
X3118644Y-9785356D01*
X3189356Y-9785356D01*
X5485356Y-5835356D02*
X5485356Y-5764644D01*
X5414644Y-5764644D01*
X5414644Y-5835356D01*
X5485356Y-5835356D01*
X6247356Y-8185356D02*
X6247356Y-8114644D01*
X6176644Y-8114644D01*
X6176644Y-8185356D01*
X6247356Y-8185356D01*
X6755356Y-8185356D02*
X6755356Y-8114644D01*
X6684644Y-8114644D01*
X6684644Y-8185356D01*
X6755356Y-8185356D01*
X2481356Y-8735356D02*
X2481356Y-8664644D01*
X2410644Y-8664644D01*
X2410644Y-8735356D01*
X2481356Y-8735356D01*
X2989356Y-8735356D02*
X2989356Y-8664644D01*
X2918644Y-8664644D01*
X2918644Y-8735356D01*
X2989356Y-8735356D01*
X5485356Y-8235356D02*
X5485356Y-8164644D01*
X5414644Y-8164644D01*
X5414644Y-8235356D01*
X5485356Y-8235356D01*
X5785356Y-8235356D02*
X5785356Y-8164644D01*
X5714644Y-8164644D01*
X5714644Y-8235356D01*
X5785356Y-8235356D01*
X2490000Y-8305000D02*
X2545000Y-8250000D01*
X2490000Y-8195000D01*
X2435000Y-8250000D01*
X2490000Y-8305000D01*
X3506000Y-8305000D02*
X3561000Y-8250000D01*
X3506000Y-8195000D01*
X3451000Y-8250000D01*
X3506000Y-8305000D01*
X2592000Y-5140000D02*
X2732000Y-5280000D01*
X2732000Y-5140000D02*
X2592000Y-5280000D01*
X2732000Y-5210000D02*
G75*
G03*
X2732000Y-5210000I-70000J0D01*
G01*
X3100000Y-5140000D02*
X3240000Y-5280000D01*
X3240000Y-5140000D02*
X3100000Y-5280000D01*
X3240000Y-5210000D02*
G75*
G03*
X3240000Y-5210000I-70000J0D01*
G01*
X3608000Y-5140000D02*
X3748000Y-5280000D01*
X3748000Y-5140000D02*
X3608000Y-5280000D01*
X3748000Y-5210000D02*
G75*
G03*
X3748000Y-5210000I-70000J0D01*
G01*
X5892000Y-7680000D02*
X6032000Y-7820000D01*
X6032000Y-7680000D02*
X5892000Y-7820000D01*
X6032000Y-7750000D02*
G75*
G03*
X6032000Y-7750000I-70000J0D01*
G01*
X6400000Y-7680000D02*
X6540000Y-7820000D01*
X6540000Y-7680000D02*
X6400000Y-7820000D01*
X6540000Y-7750000D02*
G75*
G03*
X6540000Y-7750000I-70000J0D01*
G01*
X6908000Y-7680000D02*
X7048000Y-7820000D01*
X7048000Y-7680000D02*
X6908000Y-7820000D01*
X7048000Y-7750000D02*
G75*
G03*
X7048000Y-7750000I-70000J0D01*
G01*
X2592000Y-7680000D02*
X2732000Y-7820000D01*
X2732000Y-7680000D02*
X2592000Y-7820000D01*
X2732000Y-7750000D02*
G75*
G03*
X2732000Y-7750000I-70000J0D01*
G01*
X3100000Y-7680000D02*
X3240000Y-7820000D01*
X3240000Y-7680000D02*
X3100000Y-7820000D01*
X3240000Y-7750000D02*
G75*
G03*
X3240000Y-7750000I-70000J0D01*
G01*
X3608000Y-7680000D02*
X3748000Y-7820000D01*
X3748000Y-7680000D02*
X3608000Y-7820000D01*
X3748000Y-7750000D02*
G75*
G03*
X3748000Y-7750000I-70000J0D01*
G01*
X5892000Y-5140000D02*
X6032000Y-5280000D01*
X6032000Y-5140000D02*
X5892000Y-5280000D01*
X6032000Y-5210000D02*
G75*
G03*
X6032000Y-5210000I-70000J0D01*
G01*
X6400000Y-5140000D02*
X6540000Y-5280000D01*
X6540000Y-5140000D02*
X6400000Y-5280000D01*
X6540000Y-5210000D02*
G75*
G03*
X6540000Y-5210000I-70000J0D01*
G01*
X6908000Y-5140000D02*
X7048000Y-5280000D01*
X7048000Y-5140000D02*
X6908000Y-5280000D01*
X7048000Y-5210000D02*
G75*
G03*
X7048000Y-5210000I-70000J0D01*
G01*
X2437500Y-10112500D02*
X2612500Y-10287500D01*
X2612500Y-10112500D02*
X2437500Y-10287500D01*
X2525000Y-10112500D02*
X2525000Y-10287500D01*
X2437500Y-10200000D02*
X2612500Y-10200000D01*
X7087500Y-10112500D02*
X7262500Y-10287500D01*
X7262500Y-10112500D02*
X7087500Y-10287500D01*
X7175000Y-10112500D02*
X7175000Y-10287500D01*
X7087500Y-10200000D02*
X7262500Y-10200000D01*
X6437500Y-10112500D02*
X6612500Y-10287500D01*
X6612500Y-10112500D02*
X6437500Y-10287500D01*
X6525000Y-10112500D02*
X6525000Y-10287500D01*
X6437500Y-10200000D02*
X6612500Y-10200000D01*
D12*
X2581428Y-10870714D02*
X2581428Y-10570714D01*
X2652857Y-10570714D01*
X2695714Y-10585000D01*
X2724286Y-10613572D01*
X2738571Y-10642143D01*
X2752857Y-10699286D01*
X2752857Y-10742143D01*
X2738571Y-10799286D01*
X2724286Y-10827857D01*
X2695714Y-10856429D01*
X2652857Y-10870714D01*
X2581428Y-10870714D01*
X2881428Y-10870714D02*
X2881428Y-10670714D01*
X2881428Y-10727857D02*
X2895714Y-10699286D01*
X2910000Y-10685000D01*
X2938571Y-10670714D01*
X2967143Y-10670714D01*
X3067143Y-10870714D02*
X3067143Y-10670714D01*
X3067143Y-10570714D02*
X3052857Y-10585000D01*
X3067143Y-10599286D01*
X3081428Y-10585000D01*
X3067143Y-10570714D01*
X3067143Y-10599286D01*
X3252857Y-10870714D02*
X3224286Y-10856429D01*
X3210000Y-10827857D01*
X3210000Y-10570714D01*
X3410000Y-10870714D02*
X3381428Y-10856429D01*
X3367143Y-10827857D01*
X3367143Y-10570714D01*
X3752857Y-10870714D02*
X3752857Y-10570714D01*
X3852857Y-10785000D01*
X3952857Y-10570714D01*
X3952857Y-10870714D01*
X4224286Y-10870714D02*
X4224286Y-10713572D01*
X4210000Y-10685000D01*
X4181428Y-10670714D01*
X4124286Y-10670714D01*
X4095714Y-10685000D01*
X4224286Y-10856429D02*
X4195714Y-10870714D01*
X4124286Y-10870714D01*
X4095714Y-10856429D01*
X4081428Y-10827857D01*
X4081428Y-10799286D01*
X4095714Y-10770714D01*
X4124286Y-10756429D01*
X4195714Y-10756429D01*
X4224286Y-10742143D01*
X4367143Y-10670714D02*
X4367143Y-10970714D01*
X4367143Y-10685000D02*
X4395714Y-10670714D01*
X4452857Y-10670714D01*
X4481428Y-10685000D01*
X4495714Y-10699286D01*
X4510000Y-10727857D01*
X4510000Y-10813572D01*
X4495714Y-10842143D01*
X4481428Y-10856429D01*
X4452857Y-10870714D01*
X4395714Y-10870714D01*
X4367143Y-10856429D01*
X4638571Y-10842143D02*
X4652857Y-10856429D01*
X4638571Y-10870714D01*
X4624286Y-10856429D01*
X4638571Y-10842143D01*
X4638571Y-10870714D01*
X4638571Y-10685000D02*
X4652857Y-10699286D01*
X4638571Y-10713572D01*
X4624286Y-10699286D01*
X4638571Y-10685000D01*
X4638571Y-10713572D01*
X2255000Y-11345000D02*
X2295000Y-11385000D01*
X2295000Y-11345000D02*
X2255000Y-11385000D01*
X2638571Y-11200714D02*
X2667143Y-11200714D01*
X2695714Y-11215000D01*
X2710000Y-11229286D01*
X2724286Y-11257857D01*
X2738571Y-11315000D01*
X2738571Y-11386429D01*
X2724286Y-11443571D01*
X2710000Y-11472143D01*
X2695714Y-11486429D01*
X2667143Y-11500714D01*
X2638571Y-11500714D01*
X2610000Y-11486429D01*
X2595714Y-11472143D01*
X2581428Y-11443571D01*
X2567143Y-11386429D01*
X2567143Y-11315000D01*
X2581428Y-11257857D01*
X2595714Y-11229286D01*
X2610000Y-11215000D01*
X2638571Y-11200714D01*
X2867143Y-11472143D02*
X2881428Y-11486429D01*
X2867143Y-11500714D01*
X2852857Y-11486429D01*
X2867143Y-11472143D01*
X2867143Y-11500714D01*
X3138571Y-11300714D02*
X3138571Y-11500714D01*
X3067143Y-11186429D02*
X2995714Y-11400714D01*
X3181428Y-11400714D01*
X3352857Y-11200714D02*
X3381428Y-11200714D01*
X3410000Y-11215000D01*
X3424286Y-11229286D01*
X3438571Y-11257857D01*
X3452857Y-11315000D01*
X3452857Y-11386429D01*
X3438571Y-11443571D01*
X3424286Y-11472143D01*
X3410000Y-11486429D01*
X3381428Y-11500714D01*
X3352857Y-11500714D01*
X3324286Y-11486429D01*
X3310000Y-11472143D01*
X3295714Y-11443571D01*
X3281428Y-11386429D01*
X3281428Y-11315000D01*
X3295714Y-11257857D01*
X3310000Y-11229286D01*
X3324286Y-11215000D01*
X3352857Y-11200714D01*
X3581428Y-11500714D02*
X3581428Y-11300714D01*
X3581428Y-11329286D02*
X3595714Y-11315000D01*
X3624286Y-11300714D01*
X3667143Y-11300714D01*
X3695714Y-11315000D01*
X3710000Y-11343571D01*
X3710000Y-11500714D01*
X3710000Y-11343571D02*
X3724286Y-11315000D01*
X3752857Y-11300714D01*
X3795714Y-11300714D01*
X3824286Y-11315000D01*
X3838571Y-11343571D01*
X3838571Y-11500714D01*
X3981428Y-11500714D02*
X3981428Y-11300714D01*
X3981428Y-11329286D02*
X3995714Y-11315000D01*
X4024286Y-11300714D01*
X4067143Y-11300714D01*
X4095714Y-11315000D01*
X4110000Y-11343571D01*
X4110000Y-11500714D01*
X4110000Y-11343571D02*
X4124286Y-11315000D01*
X4152857Y-11300714D01*
X4195714Y-11300714D01*
X4224286Y-11315000D01*
X4238571Y-11343571D01*
X4238571Y-11500714D01*
X4824286Y-11186429D02*
X4567143Y-11572143D01*
X5210000Y-11200714D02*
X5238571Y-11200714D01*
X5267143Y-11215000D01*
X5281428Y-11229286D01*
X5295714Y-11257857D01*
X5310000Y-11315000D01*
X5310000Y-11386429D01*
X5295714Y-11443571D01*
X5281428Y-11472143D01*
X5267143Y-11486429D01*
X5238571Y-11500714D01*
X5210000Y-11500714D01*
X5181428Y-11486429D01*
X5167143Y-11472143D01*
X5152857Y-11443571D01*
X5138571Y-11386429D01*
X5138571Y-11315000D01*
X5152857Y-11257857D01*
X5167143Y-11229286D01*
X5181428Y-11215000D01*
X5210000Y-11200714D01*
X5438571Y-11472143D02*
X5452857Y-11486429D01*
X5438571Y-11500714D01*
X5424286Y-11486429D01*
X5438571Y-11472143D01*
X5438571Y-11500714D01*
X5638571Y-11200714D02*
X5667143Y-11200714D01*
X5695714Y-11215000D01*
X5710000Y-11229286D01*
X5724286Y-11257857D01*
X5738571Y-11315000D01*
X5738571Y-11386429D01*
X5724286Y-11443571D01*
X5710000Y-11472143D01*
X5695714Y-11486429D01*
X5667143Y-11500714D01*
X5638571Y-11500714D01*
X5610000Y-11486429D01*
X5595714Y-11472143D01*
X5581428Y-11443571D01*
X5567143Y-11386429D01*
X5567143Y-11315000D01*
X5581428Y-11257857D01*
X5595714Y-11229286D01*
X5610000Y-11215000D01*
X5638571Y-11200714D01*
X6024286Y-11500714D02*
X5852857Y-11500714D01*
X5938571Y-11500714D02*
X5938571Y-11200714D01*
X5910000Y-11243571D01*
X5881428Y-11272143D01*
X5852857Y-11286429D01*
X6281428Y-11200714D02*
X6224286Y-11200714D01*
X6195714Y-11215000D01*
X6181428Y-11229286D01*
X6152857Y-11272143D01*
X6138571Y-11329286D01*
X6138571Y-11443571D01*
X6152857Y-11472143D01*
X6167143Y-11486429D01*
X6195714Y-11500714D01*
X6252857Y-11500714D01*
X6281428Y-11486429D01*
X6295714Y-11472143D01*
X6310000Y-11443571D01*
X6310000Y-11372143D01*
X6295714Y-11343571D01*
X6281428Y-11329286D01*
X6252857Y-11315000D01*
X6195714Y-11315000D01*
X6167143Y-11329286D01*
X6152857Y-11343571D01*
X6138571Y-11372143D01*
X6424286Y-11200714D02*
X6424286Y-11257857D01*
X6538571Y-11200714D02*
X6538571Y-11257857D01*
X6981428Y-11615000D02*
X6967143Y-11600714D01*
X6938571Y-11557857D01*
X6924286Y-11529286D01*
X6910000Y-11486429D01*
X6895714Y-11415000D01*
X6895714Y-11357857D01*
X6910000Y-11286429D01*
X6924286Y-11243571D01*
X6938571Y-11215000D01*
X6967143Y-11172143D01*
X6981428Y-11157857D01*
X7224286Y-11200714D02*
X7167143Y-11200714D01*
X7138571Y-11215000D01*
X7124286Y-11229286D01*
X7095714Y-11272143D01*
X7081428Y-11329286D01*
X7081428Y-11443571D01*
X7095714Y-11472143D01*
X7110000Y-11486429D01*
X7138571Y-11500714D01*
X7195714Y-11500714D01*
X7224286Y-11486429D01*
X7238571Y-11472143D01*
X7252857Y-11443571D01*
X7252857Y-11372143D01*
X7238571Y-11343571D01*
X7224286Y-11329286D01*
X7195714Y-11315000D01*
X7138571Y-11315000D01*
X7110000Y-11329286D01*
X7095714Y-11343571D01*
X7081428Y-11372143D01*
X7610000Y-11500714D02*
X7610000Y-11200714D01*
X7738571Y-11500714D02*
X7738571Y-11343571D01*
X7724286Y-11315000D01*
X7695714Y-11300714D01*
X7652857Y-11300714D01*
X7624286Y-11315000D01*
X7610000Y-11329286D01*
X7924286Y-11500714D02*
X7895714Y-11486429D01*
X7881428Y-11472143D01*
X7867143Y-11443571D01*
X7867143Y-11357857D01*
X7881428Y-11329286D01*
X7895714Y-11315000D01*
X7924286Y-11300714D01*
X7967143Y-11300714D01*
X7995714Y-11315000D01*
X8010000Y-11329286D01*
X8024286Y-11357857D01*
X8024286Y-11443571D01*
X8010000Y-11472143D01*
X7995714Y-11486429D01*
X7967143Y-11500714D01*
X7924286Y-11500714D01*
X8195714Y-11500714D02*
X8167143Y-11486429D01*
X8152857Y-11457857D01*
X8152857Y-11200714D01*
X8424286Y-11486429D02*
X8395714Y-11500714D01*
X8338571Y-11500714D01*
X8310000Y-11486429D01*
X8295714Y-11457857D01*
X8295714Y-11343571D01*
X8310000Y-11315000D01*
X8338571Y-11300714D01*
X8395714Y-11300714D01*
X8424286Y-11315000D01*
X8438571Y-11343571D01*
X8438571Y-11372143D01*
X8295714Y-11400714D01*
X8552857Y-11486429D02*
X8581428Y-11500714D01*
X8638571Y-11500714D01*
X8667143Y-11486429D01*
X8681428Y-11457857D01*
X8681428Y-11443571D01*
X8667143Y-11415000D01*
X8638571Y-11400714D01*
X8595714Y-11400714D01*
X8567143Y-11386429D01*
X8552857Y-11357857D01*
X8552857Y-11343571D01*
X8567143Y-11315000D01*
X8595714Y-11300714D01*
X8638571Y-11300714D01*
X8667143Y-11315000D01*
X8781428Y-11615000D02*
X8795714Y-11600714D01*
X8824286Y-11557857D01*
X8838571Y-11529286D01*
X8852857Y-11486429D01*
X8867143Y-11415000D01*
X8867143Y-11357857D01*
X8852857Y-11286429D01*
X8838571Y-11243571D01*
X8824286Y-11215000D01*
X8795714Y-11172143D01*
X8781428Y-11157857D01*
X2295000Y-11761000D02*
G75*
G03*
X2295000Y-11761000I-36500J0D01*
G01*
X2638571Y-11596714D02*
X2667143Y-11596714D01*
X2695714Y-11611000D01*
X2710000Y-11625286D01*
X2724286Y-11653857D01*
X2738571Y-11711000D01*
X2738571Y-11782429D01*
X2724286Y-11839571D01*
X2710000Y-11868143D01*
X2695714Y-11882429D01*
X2667143Y-11896714D01*
X2638571Y-11896714D01*
X2610000Y-11882429D01*
X2595714Y-11868143D01*
X2581428Y-11839571D01*
X2567143Y-11782429D01*
X2567143Y-11711000D01*
X2581428Y-11653857D01*
X2595714Y-11625286D01*
X2610000Y-11611000D01*
X2638571Y-11596714D01*
X2867143Y-11868143D02*
X2881428Y-11882429D01*
X2867143Y-11896714D01*
X2852857Y-11882429D01*
X2867143Y-11868143D01*
X2867143Y-11896714D01*
X2981428Y-11596714D02*
X3181428Y-11596714D01*
X3052857Y-11896714D01*
X3267143Y-11596714D02*
X3452857Y-11596714D01*
X3352857Y-11711000D01*
X3395714Y-11711000D01*
X3424286Y-11725286D01*
X3438571Y-11739571D01*
X3452857Y-11768143D01*
X3452857Y-11839571D01*
X3438571Y-11868143D01*
X3424286Y-11882429D01*
X3395714Y-11896714D01*
X3310000Y-11896714D01*
X3281428Y-11882429D01*
X3267143Y-11868143D01*
X3581428Y-11896714D02*
X3581428Y-11696714D01*
X3581428Y-11725286D02*
X3595714Y-11711000D01*
X3624286Y-11696714D01*
X3667143Y-11696714D01*
X3695714Y-11711000D01*
X3710000Y-11739571D01*
X3710000Y-11896714D01*
X3710000Y-11739571D02*
X3724286Y-11711000D01*
X3752857Y-11696714D01*
X3795714Y-11696714D01*
X3824286Y-11711000D01*
X3838571Y-11739571D01*
X3838571Y-11896714D01*
X3981428Y-11896714D02*
X3981428Y-11696714D01*
X3981428Y-11725286D02*
X3995714Y-11711000D01*
X4024286Y-11696714D01*
X4067143Y-11696714D01*
X4095714Y-11711000D01*
X4110000Y-11739571D01*
X4110000Y-11896714D01*
X4110000Y-11739571D02*
X4124286Y-11711000D01*
X4152857Y-11696714D01*
X4195714Y-11696714D01*
X4224286Y-11711000D01*
X4238571Y-11739571D01*
X4238571Y-11896714D01*
X4824286Y-11582429D02*
X4567143Y-11968143D01*
X5210000Y-11596714D02*
X5238571Y-11596714D01*
X5267143Y-11611000D01*
X5281428Y-11625286D01*
X5295714Y-11653857D01*
X5310000Y-11711000D01*
X5310000Y-11782429D01*
X5295714Y-11839571D01*
X5281428Y-11868143D01*
X5267143Y-11882429D01*
X5238571Y-11896714D01*
X5210000Y-11896714D01*
X5181428Y-11882429D01*
X5167143Y-11868143D01*
X5152857Y-11839571D01*
X5138571Y-11782429D01*
X5138571Y-11711000D01*
X5152857Y-11653857D01*
X5167143Y-11625286D01*
X5181428Y-11611000D01*
X5210000Y-11596714D01*
X5438571Y-11868143D02*
X5452857Y-11882429D01*
X5438571Y-11896714D01*
X5424286Y-11882429D01*
X5438571Y-11868143D01*
X5438571Y-11896714D01*
X5638571Y-11596714D02*
X5667143Y-11596714D01*
X5695714Y-11611000D01*
X5710000Y-11625286D01*
X5724286Y-11653857D01*
X5738571Y-11711000D01*
X5738571Y-11782429D01*
X5724286Y-11839571D01*
X5710000Y-11868143D01*
X5695714Y-11882429D01*
X5667143Y-11896714D01*
X5638571Y-11896714D01*
X5610000Y-11882429D01*
X5595714Y-11868143D01*
X5581428Y-11839571D01*
X5567143Y-11782429D01*
X5567143Y-11711000D01*
X5581428Y-11653857D01*
X5595714Y-11625286D01*
X5610000Y-11611000D01*
X5638571Y-11596714D01*
X5852857Y-11625286D02*
X5867143Y-11611000D01*
X5895714Y-11596714D01*
X5967143Y-11596714D01*
X5995714Y-11611000D01*
X6010000Y-11625286D01*
X6024286Y-11653857D01*
X6024286Y-11682429D01*
X6010000Y-11725286D01*
X5838571Y-11896714D01*
X6024286Y-11896714D01*
X6167143Y-11896714D02*
X6224286Y-11896714D01*
X6252857Y-11882429D01*
X6267143Y-11868143D01*
X6295714Y-11825286D01*
X6310000Y-11768143D01*
X6310000Y-11653857D01*
X6295714Y-11625286D01*
X6281428Y-11611000D01*
X6252857Y-11596714D01*
X6195714Y-11596714D01*
X6167143Y-11611000D01*
X6152857Y-11625286D01*
X6138571Y-11653857D01*
X6138571Y-11725286D01*
X6152857Y-11753857D01*
X6167143Y-11768143D01*
X6195714Y-11782429D01*
X6252857Y-11782429D01*
X6281428Y-11768143D01*
X6295714Y-11753857D01*
X6310000Y-11725286D01*
X6424286Y-11596714D02*
X6424286Y-11653857D01*
X6538571Y-11596714D02*
X6538571Y-11653857D01*
X6981428Y-12011000D02*
X6967143Y-11996714D01*
X6938571Y-11953857D01*
X6924286Y-11925286D01*
X6910000Y-11882429D01*
X6895714Y-11811000D01*
X6895714Y-11753857D01*
X6910000Y-11682429D01*
X6924286Y-11639571D01*
X6938571Y-11611000D01*
X6967143Y-11568143D01*
X6981428Y-11553857D01*
X7252857Y-11896714D02*
X7081428Y-11896714D01*
X7167143Y-11896714D02*
X7167143Y-11596714D01*
X7138571Y-11639571D01*
X7110000Y-11668143D01*
X7081428Y-11682429D01*
X7510000Y-11596714D02*
X7452857Y-11596714D01*
X7424286Y-11611000D01*
X7410000Y-11625286D01*
X7381428Y-11668143D01*
X7367143Y-11725286D01*
X7367143Y-11839571D01*
X7381428Y-11868143D01*
X7395714Y-11882429D01*
X7424286Y-11896714D01*
X7481428Y-11896714D01*
X7510000Y-11882429D01*
X7524286Y-11868143D01*
X7538571Y-11839571D01*
X7538571Y-11768143D01*
X7524286Y-11739571D01*
X7510000Y-11725286D01*
X7481428Y-11711000D01*
X7424286Y-11711000D01*
X7395714Y-11725286D01*
X7381428Y-11739571D01*
X7367143Y-11768143D01*
X7895714Y-11896714D02*
X7895714Y-11596714D01*
X8024286Y-11896714D02*
X8024286Y-11739571D01*
X8010000Y-11711000D01*
X7981428Y-11696714D01*
X7938571Y-11696714D01*
X7910000Y-11711000D01*
X7895714Y-11725286D01*
X8210000Y-11896714D02*
X8181428Y-11882429D01*
X8167143Y-11868143D01*
X8152857Y-11839571D01*
X8152857Y-11753857D01*
X8167143Y-11725286D01*
X8181428Y-11711000D01*
X8210000Y-11696714D01*
X8252857Y-11696714D01*
X8281428Y-11711000D01*
X8295714Y-11725286D01*
X8310000Y-11753857D01*
X8310000Y-11839571D01*
X8295714Y-11868143D01*
X8281428Y-11882429D01*
X8252857Y-11896714D01*
X8210000Y-11896714D01*
X8481428Y-11896714D02*
X8452857Y-11882429D01*
X8438571Y-11853857D01*
X8438571Y-11596714D01*
X8710000Y-11882429D02*
X8681428Y-11896714D01*
X8624286Y-11896714D01*
X8595714Y-11882429D01*
X8581428Y-11853857D01*
X8581428Y-11739571D01*
X8595714Y-11711000D01*
X8624286Y-11696714D01*
X8681428Y-11696714D01*
X8710000Y-11711000D01*
X8724286Y-11739571D01*
X8724286Y-11768143D01*
X8581428Y-11796714D01*
X8838571Y-11882429D02*
X8867143Y-11896714D01*
X8924286Y-11896714D01*
X8952857Y-11882429D01*
X8967143Y-11853857D01*
X8967143Y-11839571D01*
X8952857Y-11811000D01*
X8924286Y-11796714D01*
X8881428Y-11796714D01*
X8852857Y-11782429D01*
X8838571Y-11753857D01*
X8838571Y-11739571D01*
X8852857Y-11711000D01*
X8881428Y-11696714D01*
X8924286Y-11696714D01*
X8952857Y-11711000D01*
X9067143Y-12011000D02*
X9081428Y-11996714D01*
X9110000Y-11953857D01*
X9124286Y-11925286D01*
X9138571Y-11882429D01*
X9152857Y-11811000D01*
X9152857Y-11753857D01*
X9138571Y-11682429D01*
X9124286Y-11639571D01*
X9110000Y-11611000D01*
X9081428Y-11568143D01*
X9067143Y-11553857D01*
X2250000Y-12112000D02*
X2250000Y-12202000D01*
X2205000Y-12157000D02*
X2295000Y-12157000D01*
X2638571Y-11992714D02*
X2667143Y-11992714D01*
X2695714Y-12007000D01*
X2710000Y-12021286D01*
X2724286Y-12049857D01*
X2738571Y-12107000D01*
X2738571Y-12178429D01*
X2724286Y-12235571D01*
X2710000Y-12264143D01*
X2695714Y-12278429D01*
X2667143Y-12292714D01*
X2638571Y-12292714D01*
X2610000Y-12278429D01*
X2595714Y-12264143D01*
X2581428Y-12235571D01*
X2567143Y-12178429D01*
X2567143Y-12107000D01*
X2581428Y-12049857D01*
X2595714Y-12021286D01*
X2610000Y-12007000D01*
X2638571Y-11992714D01*
X2867143Y-12264143D02*
X2881428Y-12278429D01*
X2867143Y-12292714D01*
X2852857Y-12278429D01*
X2867143Y-12264143D01*
X2867143Y-12292714D01*
X3024286Y-12292714D02*
X3081428Y-12292714D01*
X3110000Y-12278429D01*
X3124286Y-12264143D01*
X3152857Y-12221286D01*
X3167143Y-12164143D01*
X3167143Y-12049857D01*
X3152857Y-12021286D01*
X3138571Y-12007000D01*
X3110000Y-11992714D01*
X3052857Y-11992714D01*
X3024286Y-12007000D01*
X3010000Y-12021286D01*
X2995714Y-12049857D01*
X2995714Y-12121286D01*
X3010000Y-12149857D01*
X3024286Y-12164143D01*
X3052857Y-12178429D01*
X3110000Y-12178429D01*
X3138571Y-12164143D01*
X3152857Y-12149857D01*
X3167143Y-12121286D01*
X3352857Y-11992714D02*
X3381428Y-11992714D01*
X3410000Y-12007000D01*
X3424286Y-12021286D01*
X3438571Y-12049857D01*
X3452857Y-12107000D01*
X3452857Y-12178429D01*
X3438571Y-12235571D01*
X3424286Y-12264143D01*
X3410000Y-12278429D01*
X3381428Y-12292714D01*
X3352857Y-12292714D01*
X3324286Y-12278429D01*
X3310000Y-12264143D01*
X3295714Y-12235571D01*
X3281428Y-12178429D01*
X3281428Y-12107000D01*
X3295714Y-12049857D01*
X3310000Y-12021286D01*
X3324286Y-12007000D01*
X3352857Y-11992714D01*
X3581428Y-12292714D02*
X3581428Y-12092714D01*
X3581428Y-12121286D02*
X3595714Y-12107000D01*
X3624286Y-12092714D01*
X3667143Y-12092714D01*
X3695714Y-12107000D01*
X3710000Y-12135571D01*
X3710000Y-12292714D01*
X3710000Y-12135571D02*
X3724286Y-12107000D01*
X3752857Y-12092714D01*
X3795714Y-12092714D01*
X3824286Y-12107000D01*
X3838571Y-12135571D01*
X3838571Y-12292714D01*
X3981428Y-12292714D02*
X3981428Y-12092714D01*
X3981428Y-12121286D02*
X3995714Y-12107000D01*
X4024286Y-12092714D01*
X4067143Y-12092714D01*
X4095714Y-12107000D01*
X4110000Y-12135571D01*
X4110000Y-12292714D01*
X4110000Y-12135571D02*
X4124286Y-12107000D01*
X4152857Y-12092714D01*
X4195714Y-12092714D01*
X4224286Y-12107000D01*
X4238571Y-12135571D01*
X4238571Y-12292714D01*
X4824286Y-11978429D02*
X4567143Y-12364143D01*
X5210000Y-11992714D02*
X5238571Y-11992714D01*
X5267143Y-12007000D01*
X5281428Y-12021286D01*
X5295714Y-12049857D01*
X5310000Y-12107000D01*
X5310000Y-12178429D01*
X5295714Y-12235571D01*
X5281428Y-12264143D01*
X5267143Y-12278429D01*
X5238571Y-12292714D01*
X5210000Y-12292714D01*
X5181428Y-12278429D01*
X5167143Y-12264143D01*
X5152857Y-12235571D01*
X5138571Y-12178429D01*
X5138571Y-12107000D01*
X5152857Y-12049857D01*
X5167143Y-12021286D01*
X5181428Y-12007000D01*
X5210000Y-11992714D01*
X5438571Y-12264143D02*
X5452857Y-12278429D01*
X5438571Y-12292714D01*
X5424286Y-12278429D01*
X5438571Y-12264143D01*
X5438571Y-12292714D01*
X5638571Y-11992714D02*
X5667143Y-11992714D01*
X5695714Y-12007000D01*
X5710000Y-12021286D01*
X5724286Y-12049857D01*
X5738571Y-12107000D01*
X5738571Y-12178429D01*
X5724286Y-12235571D01*
X5710000Y-12264143D01*
X5695714Y-12278429D01*
X5667143Y-12292714D01*
X5638571Y-12292714D01*
X5610000Y-12278429D01*
X5595714Y-12264143D01*
X5581428Y-12235571D01*
X5567143Y-12178429D01*
X5567143Y-12107000D01*
X5581428Y-12049857D01*
X5595714Y-12021286D01*
X5610000Y-12007000D01*
X5638571Y-11992714D01*
X5838571Y-11992714D02*
X6024286Y-11992714D01*
X5924286Y-12107000D01*
X5967143Y-12107000D01*
X5995714Y-12121286D01*
X6010000Y-12135571D01*
X6024286Y-12164143D01*
X6024286Y-12235571D01*
X6010000Y-12264143D01*
X5995714Y-12278429D01*
X5967143Y-12292714D01*
X5881428Y-12292714D01*
X5852857Y-12278429D01*
X5838571Y-12264143D01*
X6295714Y-11992714D02*
X6152857Y-11992714D01*
X6138571Y-12135571D01*
X6152857Y-12121286D01*
X6181428Y-12107000D01*
X6252857Y-12107000D01*
X6281428Y-12121286D01*
X6295714Y-12135571D01*
X6310000Y-12164143D01*
X6310000Y-12235571D01*
X6295714Y-12264143D01*
X6281428Y-12278429D01*
X6252857Y-12292714D01*
X6181428Y-12292714D01*
X6152857Y-12278429D01*
X6138571Y-12264143D01*
X6424286Y-11992714D02*
X6424286Y-12049857D01*
X6538571Y-11992714D02*
X6538571Y-12049857D01*
X6981428Y-12407000D02*
X6967143Y-12392714D01*
X6938571Y-12349857D01*
X6924286Y-12321286D01*
X6910000Y-12278429D01*
X6895714Y-12207000D01*
X6895714Y-12149857D01*
X6910000Y-12078429D01*
X6924286Y-12035571D01*
X6938571Y-12007000D01*
X6967143Y-11964143D01*
X6981428Y-11949857D01*
X7081428Y-12021286D02*
X7095714Y-12007000D01*
X7124286Y-11992714D01*
X7195714Y-11992714D01*
X7224286Y-12007000D01*
X7238571Y-12021286D01*
X7252857Y-12049857D01*
X7252857Y-12078429D01*
X7238571Y-12121286D01*
X7067143Y-12292714D01*
X7252857Y-12292714D01*
X7610000Y-12292714D02*
X7610000Y-11992714D01*
X7738571Y-12292714D02*
X7738571Y-12135571D01*
X7724286Y-12107000D01*
X7695714Y-12092714D01*
X7652857Y-12092714D01*
X7624286Y-12107000D01*
X7610000Y-12121286D01*
X7924286Y-12292714D02*
X7895714Y-12278429D01*
X7881428Y-12264143D01*
X7867143Y-12235571D01*
X7867143Y-12149857D01*
X7881428Y-12121286D01*
X7895714Y-12107000D01*
X7924286Y-12092714D01*
X7967143Y-12092714D01*
X7995714Y-12107000D01*
X8010000Y-12121286D01*
X8024286Y-12149857D01*
X8024286Y-12235571D01*
X8010000Y-12264143D01*
X7995714Y-12278429D01*
X7967143Y-12292714D01*
X7924286Y-12292714D01*
X8195714Y-12292714D02*
X8167143Y-12278429D01*
X8152857Y-12249857D01*
X8152857Y-11992714D01*
X8424286Y-12278429D02*
X8395714Y-12292714D01*
X8338571Y-12292714D01*
X8310000Y-12278429D01*
X8295714Y-12249857D01*
X8295714Y-12135571D01*
X8310000Y-12107000D01*
X8338571Y-12092714D01*
X8395714Y-12092714D01*
X8424286Y-12107000D01*
X8438571Y-12135571D01*
X8438571Y-12164143D01*
X8295714Y-12192714D01*
X8552857Y-12278429D02*
X8581428Y-12292714D01*
X8638571Y-12292714D01*
X8667143Y-12278429D01*
X8681428Y-12249857D01*
X8681428Y-12235571D01*
X8667143Y-12207000D01*
X8638571Y-12192714D01*
X8595714Y-12192714D01*
X8567143Y-12178429D01*
X8552857Y-12149857D01*
X8552857Y-12135571D01*
X8567143Y-12107000D01*
X8595714Y-12092714D01*
X8638571Y-12092714D01*
X8667143Y-12107000D01*
X8781428Y-12407000D02*
X8795714Y-12392714D01*
X8824286Y-12349857D01*
X8838571Y-12321286D01*
X8852857Y-12278429D01*
X8867143Y-12207000D01*
X8867143Y-12149857D01*
X8852857Y-12078429D01*
X8838571Y-12035571D01*
X8824286Y-12007000D01*
X8795714Y-11964143D01*
X8781428Y-11949857D01*
X2280356Y-12588356D02*
X2280356Y-12517644D01*
X2209644Y-12517644D01*
X2209644Y-12588356D01*
X2280356Y-12588356D01*
X2738571Y-12688714D02*
X2567143Y-12688714D01*
X2652857Y-12688714D02*
X2652857Y-12388714D01*
X2624286Y-12431571D01*
X2595714Y-12460143D01*
X2567143Y-12474429D01*
X2867143Y-12660143D02*
X2881428Y-12674429D01*
X2867143Y-12688714D01*
X2852857Y-12674429D01*
X2867143Y-12660143D01*
X2867143Y-12688714D01*
X3067143Y-12388714D02*
X3095714Y-12388714D01*
X3124286Y-12403000D01*
X3138571Y-12417286D01*
X3152857Y-12445857D01*
X3167143Y-12503000D01*
X3167143Y-12574429D01*
X3152857Y-12631571D01*
X3138571Y-12660143D01*
X3124286Y-12674429D01*
X3095714Y-12688714D01*
X3067143Y-12688714D01*
X3038571Y-12674429D01*
X3024286Y-12660143D01*
X3010000Y-12631571D01*
X2995714Y-12574429D01*
X2995714Y-12503000D01*
X3010000Y-12445857D01*
X3024286Y-12417286D01*
X3038571Y-12403000D01*
X3067143Y-12388714D01*
X3352857Y-12388714D02*
X3381428Y-12388714D01*
X3410000Y-12403000D01*
X3424286Y-12417286D01*
X3438571Y-12445857D01*
X3452857Y-12503000D01*
X3452857Y-12574429D01*
X3438571Y-12631571D01*
X3424286Y-12660143D01*
X3410000Y-12674429D01*
X3381428Y-12688714D01*
X3352857Y-12688714D01*
X3324286Y-12674429D01*
X3310000Y-12660143D01*
X3295714Y-12631571D01*
X3281428Y-12574429D01*
X3281428Y-12503000D01*
X3295714Y-12445857D01*
X3310000Y-12417286D01*
X3324286Y-12403000D01*
X3352857Y-12388714D01*
X3581428Y-12688714D02*
X3581428Y-12488714D01*
X3581428Y-12517286D02*
X3595714Y-12503000D01*
X3624286Y-12488714D01*
X3667143Y-12488714D01*
X3695714Y-12503000D01*
X3710000Y-12531571D01*
X3710000Y-12688714D01*
X3710000Y-12531571D02*
X3724286Y-12503000D01*
X3752857Y-12488714D01*
X3795714Y-12488714D01*
X3824286Y-12503000D01*
X3838571Y-12531571D01*
X3838571Y-12688714D01*
X3981428Y-12688714D02*
X3981428Y-12488714D01*
X3981428Y-12517286D02*
X3995714Y-12503000D01*
X4024286Y-12488714D01*
X4067143Y-12488714D01*
X4095714Y-12503000D01*
X4110000Y-12531571D01*
X4110000Y-12688714D01*
X4110000Y-12531571D02*
X4124286Y-12503000D01*
X4152857Y-12488714D01*
X4195714Y-12488714D01*
X4224286Y-12503000D01*
X4238571Y-12531571D01*
X4238571Y-12688714D01*
X4824286Y-12374429D02*
X4567143Y-12760143D01*
X5210000Y-12388714D02*
X5238571Y-12388714D01*
X5267143Y-12403000D01*
X5281428Y-12417286D01*
X5295714Y-12445857D01*
X5310000Y-12503000D01*
X5310000Y-12574429D01*
X5295714Y-12631571D01*
X5281428Y-12660143D01*
X5267143Y-12674429D01*
X5238571Y-12688714D01*
X5210000Y-12688714D01*
X5181428Y-12674429D01*
X5167143Y-12660143D01*
X5152857Y-12631571D01*
X5138571Y-12574429D01*
X5138571Y-12503000D01*
X5152857Y-12445857D01*
X5167143Y-12417286D01*
X5181428Y-12403000D01*
X5210000Y-12388714D01*
X5438571Y-12660143D02*
X5452857Y-12674429D01*
X5438571Y-12688714D01*
X5424286Y-12674429D01*
X5438571Y-12660143D01*
X5438571Y-12688714D01*
X5638571Y-12388714D02*
X5667143Y-12388714D01*
X5695714Y-12403000D01*
X5710000Y-12417286D01*
X5724286Y-12445857D01*
X5738571Y-12503000D01*
X5738571Y-12574429D01*
X5724286Y-12631571D01*
X5710000Y-12660143D01*
X5695714Y-12674429D01*
X5667143Y-12688714D01*
X5638571Y-12688714D01*
X5610000Y-12674429D01*
X5595714Y-12660143D01*
X5581428Y-12631571D01*
X5567143Y-12574429D01*
X5567143Y-12503000D01*
X5581428Y-12445857D01*
X5595714Y-12417286D01*
X5610000Y-12403000D01*
X5638571Y-12388714D01*
X5838571Y-12388714D02*
X6024286Y-12388714D01*
X5924286Y-12503000D01*
X5967143Y-12503000D01*
X5995714Y-12517286D01*
X6010000Y-12531571D01*
X6024286Y-12560143D01*
X6024286Y-12631571D01*
X6010000Y-12660143D01*
X5995714Y-12674429D01*
X5967143Y-12688714D01*
X5881428Y-12688714D01*
X5852857Y-12674429D01*
X5838571Y-12660143D01*
X6167143Y-12688714D02*
X6224286Y-12688714D01*
X6252857Y-12674429D01*
X6267143Y-12660143D01*
X6295714Y-12617286D01*
X6310000Y-12560143D01*
X6310000Y-12445857D01*
X6295714Y-12417286D01*
X6281428Y-12403000D01*
X6252857Y-12388714D01*
X6195714Y-12388714D01*
X6167143Y-12403000D01*
X6152857Y-12417286D01*
X6138571Y-12445857D01*
X6138571Y-12517286D01*
X6152857Y-12545857D01*
X6167143Y-12560143D01*
X6195714Y-12574429D01*
X6252857Y-12574429D01*
X6281428Y-12560143D01*
X6295714Y-12545857D01*
X6310000Y-12517286D01*
X6424286Y-12388714D02*
X6424286Y-12445857D01*
X6538571Y-12388714D02*
X6538571Y-12445857D01*
X6981428Y-12803000D02*
X6967143Y-12788714D01*
X6938571Y-12745857D01*
X6924286Y-12717286D01*
X6910000Y-12674429D01*
X6895714Y-12603000D01*
X6895714Y-12545857D01*
X6910000Y-12474429D01*
X6924286Y-12431571D01*
X6938571Y-12403000D01*
X6967143Y-12360143D01*
X6981428Y-12345857D01*
X7224286Y-12488714D02*
X7224286Y-12688714D01*
X7152857Y-12374429D02*
X7081428Y-12588714D01*
X7267143Y-12588714D01*
X7524286Y-12388714D02*
X7381428Y-12388714D01*
X7367143Y-12531571D01*
X7381428Y-12517286D01*
X7410000Y-12503000D01*
X7481428Y-12503000D01*
X7510000Y-12517286D01*
X7524286Y-12531571D01*
X7538571Y-12560143D01*
X7538571Y-12631571D01*
X7524286Y-12660143D01*
X7510000Y-12674429D01*
X7481428Y-12688714D01*
X7410000Y-12688714D01*
X7381428Y-12674429D01*
X7367143Y-12660143D01*
X7895714Y-12688714D02*
X7895714Y-12388714D01*
X8024286Y-12688714D02*
X8024286Y-12531571D01*
X8010000Y-12503000D01*
X7981428Y-12488714D01*
X7938571Y-12488714D01*
X7910000Y-12503000D01*
X7895714Y-12517286D01*
X8210000Y-12688714D02*
X8181428Y-12674429D01*
X8167143Y-12660143D01*
X8152857Y-12631571D01*
X8152857Y-12545857D01*
X8167143Y-12517286D01*
X8181428Y-12503000D01*
X8210000Y-12488714D01*
X8252857Y-12488714D01*
X8281428Y-12503000D01*
X8295714Y-12517286D01*
X8310000Y-12545857D01*
X8310000Y-12631571D01*
X8295714Y-12660143D01*
X8281428Y-12674429D01*
X8252857Y-12688714D01*
X8210000Y-12688714D01*
X8481428Y-12688714D02*
X8452857Y-12674429D01*
X8438571Y-12645857D01*
X8438571Y-12388714D01*
X8710000Y-12674429D02*
X8681428Y-12688714D01*
X8624286Y-12688714D01*
X8595714Y-12674429D01*
X8581428Y-12645857D01*
X8581428Y-12531571D01*
X8595714Y-12503000D01*
X8624286Y-12488714D01*
X8681428Y-12488714D01*
X8710000Y-12503000D01*
X8724286Y-12531571D01*
X8724286Y-12560143D01*
X8581428Y-12588714D01*
X8838571Y-12674429D02*
X8867143Y-12688714D01*
X8924286Y-12688714D01*
X8952857Y-12674429D01*
X8967143Y-12645857D01*
X8967143Y-12631571D01*
X8952857Y-12603000D01*
X8924286Y-12588714D01*
X8881428Y-12588714D01*
X8852857Y-12574429D01*
X8838571Y-12545857D01*
X8838571Y-12531571D01*
X8852857Y-12503000D01*
X8881428Y-12488714D01*
X8924286Y-12488714D01*
X8952857Y-12503000D01*
X9067143Y-12803000D02*
X9081428Y-12788714D01*
X9110000Y-12745857D01*
X9124286Y-12717286D01*
X9138571Y-12674429D01*
X9152857Y-12603000D01*
X9152857Y-12545857D01*
X9138571Y-12474429D01*
X9124286Y-12431571D01*
X9110000Y-12403000D01*
X9081428Y-12360143D01*
X9067143Y-12345857D01*
X2240000Y-13004000D02*
X2295000Y-12949000D01*
X2240000Y-12894000D01*
X2185000Y-12949000D01*
X2240000Y-13004000D01*
X2738571Y-13084714D02*
X2567143Y-13084714D01*
X2652857Y-13084714D02*
X2652857Y-12784714D01*
X2624286Y-12827571D01*
X2595714Y-12856143D01*
X2567143Y-12870429D01*
X2867143Y-13056143D02*
X2881428Y-13070429D01*
X2867143Y-13084714D01*
X2852857Y-13070429D01*
X2867143Y-13056143D01*
X2867143Y-13084714D01*
X3167143Y-13084714D02*
X2995714Y-13084714D01*
X3081428Y-13084714D02*
X3081428Y-12784714D01*
X3052857Y-12827571D01*
X3024286Y-12856143D01*
X2995714Y-12870429D01*
X3352857Y-12784714D02*
X3381428Y-12784714D01*
X3410000Y-12799000D01*
X3424286Y-12813286D01*
X3438571Y-12841857D01*
X3452857Y-12899000D01*
X3452857Y-12970429D01*
X3438571Y-13027571D01*
X3424286Y-13056143D01*
X3410000Y-13070429D01*
X3381428Y-13084714D01*
X3352857Y-13084714D01*
X3324286Y-13070429D01*
X3310000Y-13056143D01*
X3295714Y-13027571D01*
X3281428Y-12970429D01*
X3281428Y-12899000D01*
X3295714Y-12841857D01*
X3310000Y-12813286D01*
X3324286Y-12799000D01*
X3352857Y-12784714D01*
X3581428Y-13084714D02*
X3581428Y-12884714D01*
X3581428Y-12913286D02*
X3595714Y-12899000D01*
X3624286Y-12884714D01*
X3667143Y-12884714D01*
X3695714Y-12899000D01*
X3710000Y-12927571D01*
X3710000Y-13084714D01*
X3710000Y-12927571D02*
X3724286Y-12899000D01*
X3752857Y-12884714D01*
X3795714Y-12884714D01*
X3824286Y-12899000D01*
X3838571Y-12927571D01*
X3838571Y-13084714D01*
X3981428Y-13084714D02*
X3981428Y-12884714D01*
X3981428Y-12913286D02*
X3995714Y-12899000D01*
X4024286Y-12884714D01*
X4067143Y-12884714D01*
X4095714Y-12899000D01*
X4110000Y-12927571D01*
X4110000Y-13084714D01*
X4110000Y-12927571D02*
X4124286Y-12899000D01*
X4152857Y-12884714D01*
X4195714Y-12884714D01*
X4224286Y-12899000D01*
X4238571Y-12927571D01*
X4238571Y-13084714D01*
X4824286Y-12770429D02*
X4567143Y-13156143D01*
X5210000Y-12784714D02*
X5238571Y-12784714D01*
X5267143Y-12799000D01*
X5281428Y-12813286D01*
X5295714Y-12841857D01*
X5310000Y-12899000D01*
X5310000Y-12970429D01*
X5295714Y-13027571D01*
X5281428Y-13056143D01*
X5267143Y-13070429D01*
X5238571Y-13084714D01*
X5210000Y-13084714D01*
X5181428Y-13070429D01*
X5167143Y-13056143D01*
X5152857Y-13027571D01*
X5138571Y-12970429D01*
X5138571Y-12899000D01*
X5152857Y-12841857D01*
X5167143Y-12813286D01*
X5181428Y-12799000D01*
X5210000Y-12784714D01*
X5438571Y-13056143D02*
X5452857Y-13070429D01*
X5438571Y-13084714D01*
X5424286Y-13070429D01*
X5438571Y-13056143D01*
X5438571Y-13084714D01*
X5638571Y-12784714D02*
X5667143Y-12784714D01*
X5695714Y-12799000D01*
X5710000Y-12813286D01*
X5724286Y-12841857D01*
X5738571Y-12899000D01*
X5738571Y-12970429D01*
X5724286Y-13027571D01*
X5710000Y-13056143D01*
X5695714Y-13070429D01*
X5667143Y-13084714D01*
X5638571Y-13084714D01*
X5610000Y-13070429D01*
X5595714Y-13056143D01*
X5581428Y-13027571D01*
X5567143Y-12970429D01*
X5567143Y-12899000D01*
X5581428Y-12841857D01*
X5595714Y-12813286D01*
X5610000Y-12799000D01*
X5638571Y-12784714D01*
X5995714Y-12884714D02*
X5995714Y-13084714D01*
X5924286Y-12770429D02*
X5852857Y-12984714D01*
X6038571Y-12984714D01*
X6124286Y-12784714D02*
X6310000Y-12784714D01*
X6210000Y-12899000D01*
X6252857Y-12899000D01*
X6281428Y-12913286D01*
X6295714Y-12927571D01*
X6310000Y-12956143D01*
X6310000Y-13027571D01*
X6295714Y-13056143D01*
X6281428Y-13070429D01*
X6252857Y-13084714D01*
X6167143Y-13084714D01*
X6138571Y-13070429D01*
X6124286Y-13056143D01*
X6424286Y-12784714D02*
X6424286Y-12841857D01*
X6538571Y-12784714D02*
X6538571Y-12841857D01*
X6981428Y-13199000D02*
X6967143Y-13184714D01*
X6938571Y-13141857D01*
X6924286Y-13113286D01*
X6910000Y-13070429D01*
X6895714Y-12999000D01*
X6895714Y-12941857D01*
X6910000Y-12870429D01*
X6924286Y-12827571D01*
X6938571Y-12799000D01*
X6967143Y-12756143D01*
X6981428Y-12741857D01*
X7081428Y-12813286D02*
X7095714Y-12799000D01*
X7124286Y-12784714D01*
X7195714Y-12784714D01*
X7224286Y-12799000D01*
X7238571Y-12813286D01*
X7252857Y-12841857D01*
X7252857Y-12870429D01*
X7238571Y-12913286D01*
X7067143Y-13084714D01*
X7252857Y-13084714D01*
X7610000Y-13084714D02*
X7610000Y-12784714D01*
X7738571Y-13084714D02*
X7738571Y-12927571D01*
X7724286Y-12899000D01*
X7695714Y-12884714D01*
X7652857Y-12884714D01*
X7624286Y-12899000D01*
X7610000Y-12913286D01*
X7924286Y-13084714D02*
X7895714Y-13070429D01*
X7881428Y-13056143D01*
X7867143Y-13027571D01*
X7867143Y-12941857D01*
X7881428Y-12913286D01*
X7895714Y-12899000D01*
X7924286Y-12884714D01*
X7967143Y-12884714D01*
X7995714Y-12899000D01*
X8010000Y-12913286D01*
X8024286Y-12941857D01*
X8024286Y-13027571D01*
X8010000Y-13056143D01*
X7995714Y-13070429D01*
X7967143Y-13084714D01*
X7924286Y-13084714D01*
X8195714Y-13084714D02*
X8167143Y-13070429D01*
X8152857Y-13041857D01*
X8152857Y-12784714D01*
X8424286Y-13070429D02*
X8395714Y-13084714D01*
X8338571Y-13084714D01*
X8310000Y-13070429D01*
X8295714Y-13041857D01*
X8295714Y-12927571D01*
X8310000Y-12899000D01*
X8338571Y-12884714D01*
X8395714Y-12884714D01*
X8424286Y-12899000D01*
X8438571Y-12927571D01*
X8438571Y-12956143D01*
X8295714Y-12984714D01*
X8552857Y-13070429D02*
X8581428Y-13084714D01*
X8638571Y-13084714D01*
X8667143Y-13070429D01*
X8681428Y-13041857D01*
X8681428Y-13027571D01*
X8667143Y-12999000D01*
X8638571Y-12984714D01*
X8595714Y-12984714D01*
X8567143Y-12970429D01*
X8552857Y-12941857D01*
X8552857Y-12927571D01*
X8567143Y-12899000D01*
X8595714Y-12884714D01*
X8638571Y-12884714D01*
X8667143Y-12899000D01*
X8781428Y-13199000D02*
X8795714Y-13184714D01*
X8824286Y-13141857D01*
X8838571Y-13113286D01*
X8852857Y-13070429D01*
X8867143Y-12999000D01*
X8867143Y-12941857D01*
X8852857Y-12870429D01*
X8838571Y-12827571D01*
X8824286Y-12799000D01*
X8795714Y-12756143D01*
X8781428Y-12741857D01*
X2155000Y-13275000D02*
X2295000Y-13415000D01*
X2295000Y-13275000D02*
X2155000Y-13415000D01*
X2295000Y-13345000D02*
G75*
G03*
X2295000Y-13345000I-70000J0D01*
G01*
X2738571Y-13480714D02*
X2567143Y-13480714D01*
X2652857Y-13480714D02*
X2652857Y-13180714D01*
X2624286Y-13223571D01*
X2595714Y-13252143D01*
X2567143Y-13266429D01*
X2867143Y-13452143D02*
X2881428Y-13466429D01*
X2867143Y-13480714D01*
X2852857Y-13466429D01*
X2867143Y-13452143D01*
X2867143Y-13480714D01*
X3138571Y-13280714D02*
X3138571Y-13480714D01*
X3067143Y-13166429D02*
X2995714Y-13380714D01*
X3181428Y-13380714D01*
X3352857Y-13180714D02*
X3381428Y-13180714D01*
X3410000Y-13195000D01*
X3424286Y-13209286D01*
X3438571Y-13237857D01*
X3452857Y-13295000D01*
X3452857Y-13366429D01*
X3438571Y-13423571D01*
X3424286Y-13452143D01*
X3410000Y-13466429D01*
X3381428Y-13480714D01*
X3352857Y-13480714D01*
X3324286Y-13466429D01*
X3310000Y-13452143D01*
X3295714Y-13423571D01*
X3281428Y-13366429D01*
X3281428Y-13295000D01*
X3295714Y-13237857D01*
X3310000Y-13209286D01*
X3324286Y-13195000D01*
X3352857Y-13180714D01*
X3581428Y-13480714D02*
X3581428Y-13280714D01*
X3581428Y-13309286D02*
X3595714Y-13295000D01*
X3624286Y-13280714D01*
X3667143Y-13280714D01*
X3695714Y-13295000D01*
X3710000Y-13323571D01*
X3710000Y-13480714D01*
X3710000Y-13323571D02*
X3724286Y-13295000D01*
X3752857Y-13280714D01*
X3795714Y-13280714D01*
X3824286Y-13295000D01*
X3838571Y-13323571D01*
X3838571Y-13480714D01*
X3981428Y-13480714D02*
X3981428Y-13280714D01*
X3981428Y-13309286D02*
X3995714Y-13295000D01*
X4024286Y-13280714D01*
X4067143Y-13280714D01*
X4095714Y-13295000D01*
X4110000Y-13323571D01*
X4110000Y-13480714D01*
X4110000Y-13323571D02*
X4124286Y-13295000D01*
X4152857Y-13280714D01*
X4195714Y-13280714D01*
X4224286Y-13295000D01*
X4238571Y-13323571D01*
X4238571Y-13480714D01*
X4824286Y-13166429D02*
X4567143Y-13552143D01*
X5210000Y-13180714D02*
X5238571Y-13180714D01*
X5267143Y-13195000D01*
X5281428Y-13209286D01*
X5295714Y-13237857D01*
X5310000Y-13295000D01*
X5310000Y-13366429D01*
X5295714Y-13423571D01*
X5281428Y-13452143D01*
X5267143Y-13466429D01*
X5238571Y-13480714D01*
X5210000Y-13480714D01*
X5181428Y-13466429D01*
X5167143Y-13452143D01*
X5152857Y-13423571D01*
X5138571Y-13366429D01*
X5138571Y-13295000D01*
X5152857Y-13237857D01*
X5167143Y-13209286D01*
X5181428Y-13195000D01*
X5210000Y-13180714D01*
X5438571Y-13452143D02*
X5452857Y-13466429D01*
X5438571Y-13480714D01*
X5424286Y-13466429D01*
X5438571Y-13452143D01*
X5438571Y-13480714D01*
X5638571Y-13180714D02*
X5667143Y-13180714D01*
X5695714Y-13195000D01*
X5710000Y-13209286D01*
X5724286Y-13237857D01*
X5738571Y-13295000D01*
X5738571Y-13366429D01*
X5724286Y-13423571D01*
X5710000Y-13452143D01*
X5695714Y-13466429D01*
X5667143Y-13480714D01*
X5638571Y-13480714D01*
X5610000Y-13466429D01*
X5595714Y-13452143D01*
X5581428Y-13423571D01*
X5567143Y-13366429D01*
X5567143Y-13295000D01*
X5581428Y-13237857D01*
X5595714Y-13209286D01*
X5610000Y-13195000D01*
X5638571Y-13180714D01*
X6010000Y-13180714D02*
X5867143Y-13180714D01*
X5852857Y-13323571D01*
X5867143Y-13309286D01*
X5895714Y-13295000D01*
X5967143Y-13295000D01*
X5995714Y-13309286D01*
X6010000Y-13323571D01*
X6024286Y-13352143D01*
X6024286Y-13423571D01*
X6010000Y-13452143D01*
X5995714Y-13466429D01*
X5967143Y-13480714D01*
X5895714Y-13480714D01*
X5867143Y-13466429D01*
X5852857Y-13452143D01*
X6295714Y-13180714D02*
X6152857Y-13180714D01*
X6138571Y-13323571D01*
X6152857Y-13309286D01*
X6181428Y-13295000D01*
X6252857Y-13295000D01*
X6281428Y-13309286D01*
X6295714Y-13323571D01*
X6310000Y-13352143D01*
X6310000Y-13423571D01*
X6295714Y-13452143D01*
X6281428Y-13466429D01*
X6252857Y-13480714D01*
X6181428Y-13480714D01*
X6152857Y-13466429D01*
X6138571Y-13452143D01*
X6424286Y-13180714D02*
X6424286Y-13237857D01*
X6538571Y-13180714D02*
X6538571Y-13237857D01*
X6981428Y-13595000D02*
X6967143Y-13580714D01*
X6938571Y-13537857D01*
X6924286Y-13509286D01*
X6910000Y-13466429D01*
X6895714Y-13395000D01*
X6895714Y-13337857D01*
X6910000Y-13266429D01*
X6924286Y-13223571D01*
X6938571Y-13195000D01*
X6967143Y-13152143D01*
X6981428Y-13137857D01*
X7252857Y-13480714D02*
X7081428Y-13480714D01*
X7167143Y-13480714D02*
X7167143Y-13180714D01*
X7138571Y-13223571D01*
X7110000Y-13252143D01*
X7081428Y-13266429D01*
X7367143Y-13209286D02*
X7381428Y-13195000D01*
X7410000Y-13180714D01*
X7481428Y-13180714D01*
X7510000Y-13195000D01*
X7524286Y-13209286D01*
X7538571Y-13237857D01*
X7538571Y-13266429D01*
X7524286Y-13309286D01*
X7352857Y-13480714D01*
X7538571Y-13480714D01*
X7895714Y-13480714D02*
X7895714Y-13180714D01*
X8024286Y-13480714D02*
X8024286Y-13323571D01*
X8010000Y-13295000D01*
X7981428Y-13280714D01*
X7938571Y-13280714D01*
X7910000Y-13295000D01*
X7895714Y-13309286D01*
X8210000Y-13480714D02*
X8181428Y-13466429D01*
X8167143Y-13452143D01*
X8152857Y-13423571D01*
X8152857Y-13337857D01*
X8167143Y-13309286D01*
X8181428Y-13295000D01*
X8210000Y-13280714D01*
X8252857Y-13280714D01*
X8281428Y-13295000D01*
X8295714Y-13309286D01*
X8310000Y-13337857D01*
X8310000Y-13423571D01*
X8295714Y-13452143D01*
X8281428Y-13466429D01*
X8252857Y-13480714D01*
X8210000Y-13480714D01*
X8481428Y-13480714D02*
X8452857Y-13466429D01*
X8438571Y-13437857D01*
X8438571Y-13180714D01*
X8710000Y-13466429D02*
X8681428Y-13480714D01*
X8624286Y-13480714D01*
X8595714Y-13466429D01*
X8581428Y-13437857D01*
X8581428Y-13323571D01*
X8595714Y-13295000D01*
X8624286Y-13280714D01*
X8681428Y-13280714D01*
X8710000Y-13295000D01*
X8724286Y-13323571D01*
X8724286Y-13352143D01*
X8581428Y-13380714D01*
X8838571Y-13466429D02*
X8867143Y-13480714D01*
X8924286Y-13480714D01*
X8952857Y-13466429D01*
X8967143Y-13437857D01*
X8967143Y-13423571D01*
X8952857Y-13395000D01*
X8924286Y-13380714D01*
X8881428Y-13380714D01*
X8852857Y-13366429D01*
X8838571Y-13337857D01*
X8838571Y-13323571D01*
X8852857Y-13295000D01*
X8881428Y-13280714D01*
X8924286Y-13280714D01*
X8952857Y-13295000D01*
X9067143Y-13595000D02*
X9081428Y-13580714D01*
X9110000Y-13537857D01*
X9124286Y-13509286D01*
X9138571Y-13466429D01*
X9152857Y-13395000D01*
X9152857Y-13337857D01*
X9138571Y-13266429D01*
X9124286Y-13223571D01*
X9110000Y-13195000D01*
X9081428Y-13152143D01*
X9067143Y-13137857D01*
X2120000Y-13653500D02*
X2295000Y-13828500D01*
X2295000Y-13653500D02*
X2120000Y-13828500D01*
X2207500Y-13653500D02*
X2207500Y-13828500D01*
X2120000Y-13741000D02*
X2295000Y-13741000D01*
X2738571Y-13876714D02*
X2567143Y-13876714D01*
X2652857Y-13876714D02*
X2652857Y-13576714D01*
X2624286Y-13619571D01*
X2595714Y-13648143D01*
X2567143Y-13662429D01*
X2867143Y-13848143D02*
X2881428Y-13862429D01*
X2867143Y-13876714D01*
X2852857Y-13862429D01*
X2867143Y-13848143D01*
X2867143Y-13876714D01*
X2981428Y-13576714D02*
X3181428Y-13576714D01*
X3052857Y-13876714D01*
X3438571Y-13576714D02*
X3295714Y-13576714D01*
X3281428Y-13719571D01*
X3295714Y-13705286D01*
X3324286Y-13691000D01*
X3395714Y-13691000D01*
X3424286Y-13705286D01*
X3438571Y-13719571D01*
X3452857Y-13748143D01*
X3452857Y-13819571D01*
X3438571Y-13848143D01*
X3424286Y-13862429D01*
X3395714Y-13876714D01*
X3324286Y-13876714D01*
X3295714Y-13862429D01*
X3281428Y-13848143D01*
X3581428Y-13876714D02*
X3581428Y-13676714D01*
X3581428Y-13705286D02*
X3595714Y-13691000D01*
X3624286Y-13676714D01*
X3667143Y-13676714D01*
X3695714Y-13691000D01*
X3710000Y-13719571D01*
X3710000Y-13876714D01*
X3710000Y-13719571D02*
X3724286Y-13691000D01*
X3752857Y-13676714D01*
X3795714Y-13676714D01*
X3824286Y-13691000D01*
X3838571Y-13719571D01*
X3838571Y-13876714D01*
X3981428Y-13876714D02*
X3981428Y-13676714D01*
X3981428Y-13705286D02*
X3995714Y-13691000D01*
X4024286Y-13676714D01*
X4067143Y-13676714D01*
X4095714Y-13691000D01*
X4110000Y-13719571D01*
X4110000Y-13876714D01*
X4110000Y-13719571D02*
X4124286Y-13691000D01*
X4152857Y-13676714D01*
X4195714Y-13676714D01*
X4224286Y-13691000D01*
X4238571Y-13719571D01*
X4238571Y-13876714D01*
X4824286Y-13562429D02*
X4567143Y-13948143D01*
X5210000Y-13576714D02*
X5238571Y-13576714D01*
X5267143Y-13591000D01*
X5281428Y-13605286D01*
X5295714Y-13633857D01*
X5310000Y-13691000D01*
X5310000Y-13762429D01*
X5295714Y-13819571D01*
X5281428Y-13848143D01*
X5267143Y-13862429D01*
X5238571Y-13876714D01*
X5210000Y-13876714D01*
X5181428Y-13862429D01*
X5167143Y-13848143D01*
X5152857Y-13819571D01*
X5138571Y-13762429D01*
X5138571Y-13691000D01*
X5152857Y-13633857D01*
X5167143Y-13605286D01*
X5181428Y-13591000D01*
X5210000Y-13576714D01*
X5438571Y-13848143D02*
X5452857Y-13862429D01*
X5438571Y-13876714D01*
X5424286Y-13862429D01*
X5438571Y-13848143D01*
X5438571Y-13876714D01*
X5638571Y-13576714D02*
X5667143Y-13576714D01*
X5695714Y-13591000D01*
X5710000Y-13605286D01*
X5724286Y-13633857D01*
X5738571Y-13691000D01*
X5738571Y-13762429D01*
X5724286Y-13819571D01*
X5710000Y-13848143D01*
X5695714Y-13862429D01*
X5667143Y-13876714D01*
X5638571Y-13876714D01*
X5610000Y-13862429D01*
X5595714Y-13848143D01*
X5581428Y-13819571D01*
X5567143Y-13762429D01*
X5567143Y-13691000D01*
X5581428Y-13633857D01*
X5595714Y-13605286D01*
X5610000Y-13591000D01*
X5638571Y-13576714D01*
X5995714Y-13576714D02*
X5938571Y-13576714D01*
X5910000Y-13591000D01*
X5895714Y-13605286D01*
X5867143Y-13648143D01*
X5852857Y-13705286D01*
X5852857Y-13819571D01*
X5867143Y-13848143D01*
X5881428Y-13862429D01*
X5910000Y-13876714D01*
X5967143Y-13876714D01*
X5995714Y-13862429D01*
X6010000Y-13848143D01*
X6024286Y-13819571D01*
X6024286Y-13748143D01*
X6010000Y-13719571D01*
X5995714Y-13705286D01*
X5967143Y-13691000D01*
X5910000Y-13691000D01*
X5881428Y-13705286D01*
X5867143Y-13719571D01*
X5852857Y-13748143D01*
X6167143Y-13876714D02*
X6224286Y-13876714D01*
X6252857Y-13862429D01*
X6267143Y-13848143D01*
X6295714Y-13805286D01*
X6310000Y-13748143D01*
X6310000Y-13633857D01*
X6295714Y-13605286D01*
X6281428Y-13591000D01*
X6252857Y-13576714D01*
X6195714Y-13576714D01*
X6167143Y-13591000D01*
X6152857Y-13605286D01*
X6138571Y-13633857D01*
X6138571Y-13705286D01*
X6152857Y-13733857D01*
X6167143Y-13748143D01*
X6195714Y-13762429D01*
X6252857Y-13762429D01*
X6281428Y-13748143D01*
X6295714Y-13733857D01*
X6310000Y-13705286D01*
X6424286Y-13576714D02*
X6424286Y-13633857D01*
X6538571Y-13576714D02*
X6538571Y-13633857D01*
X6981428Y-13991000D02*
X6967143Y-13976714D01*
X6938571Y-13933857D01*
X6924286Y-13905286D01*
X6910000Y-13862429D01*
X6895714Y-13791000D01*
X6895714Y-13733857D01*
X6910000Y-13662429D01*
X6924286Y-13619571D01*
X6938571Y-13591000D01*
X6967143Y-13548143D01*
X6981428Y-13533857D01*
X7067143Y-13576714D02*
X7252857Y-13576714D01*
X7152857Y-13691000D01*
X7195714Y-13691000D01*
X7224286Y-13705286D01*
X7238571Y-13719571D01*
X7252857Y-13748143D01*
X7252857Y-13819571D01*
X7238571Y-13848143D01*
X7224286Y-13862429D01*
X7195714Y-13876714D01*
X7110000Y-13876714D01*
X7081428Y-13862429D01*
X7067143Y-13848143D01*
X7610000Y-13876714D02*
X7610000Y-13576714D01*
X7738571Y-13876714D02*
X7738571Y-13719571D01*
X7724286Y-13691000D01*
X7695714Y-13676714D01*
X7652857Y-13676714D01*
X7624286Y-13691000D01*
X7610000Y-13705286D01*
X7924286Y-13876714D02*
X7895714Y-13862429D01*
X7881428Y-13848143D01*
X7867143Y-13819571D01*
X7867143Y-13733857D01*
X7881428Y-13705286D01*
X7895714Y-13691000D01*
X7924286Y-13676714D01*
X7967143Y-13676714D01*
X7995714Y-13691000D01*
X8010000Y-13705286D01*
X8024286Y-13733857D01*
X8024286Y-13819571D01*
X8010000Y-13848143D01*
X7995714Y-13862429D01*
X7967143Y-13876714D01*
X7924286Y-13876714D01*
X8195714Y-13876714D02*
X8167143Y-13862429D01*
X8152857Y-13833857D01*
X8152857Y-13576714D01*
X8424286Y-13862429D02*
X8395714Y-13876714D01*
X8338571Y-13876714D01*
X8310000Y-13862429D01*
X8295714Y-13833857D01*
X8295714Y-13719571D01*
X8310000Y-13691000D01*
X8338571Y-13676714D01*
X8395714Y-13676714D01*
X8424286Y-13691000D01*
X8438571Y-13719571D01*
X8438571Y-13748143D01*
X8295714Y-13776714D01*
X8552857Y-13862429D02*
X8581428Y-13876714D01*
X8638571Y-13876714D01*
X8667143Y-13862429D01*
X8681428Y-13833857D01*
X8681428Y-13819571D01*
X8667143Y-13791000D01*
X8638571Y-13776714D01*
X8595714Y-13776714D01*
X8567143Y-13762429D01*
X8552857Y-13733857D01*
X8552857Y-13719571D01*
X8567143Y-13691000D01*
X8595714Y-13676714D01*
X8638571Y-13676714D01*
X8667143Y-13691000D01*
X8781428Y-13991000D02*
X8795714Y-13976714D01*
X8824286Y-13933857D01*
X8838571Y-13905286D01*
X8852857Y-13862429D01*
X8867143Y-13791000D01*
X8867143Y-13733857D01*
X8852857Y-13662429D01*
X8838571Y-13619571D01*
X8824286Y-13591000D01*
X8795714Y-13548143D01*
X8781428Y-13533857D01*
M02*
